<svg width="3150" height="700" viewBox="0 0 3150 700" xmlns="http://www.w3.org/2000/svg">
  <defs>
    <style>
      .beam { fill: #d3d3d3; stroke: #444; stroke-width: 3; }
      .support { stroke-width: 3; }
      .fixed-support { fill: black; stroke: black; }
      .red-support { fill: #d2222d; stroke: #990000; }
      .span-dim-line { stroke: #212121; stroke-width: 3; }
      .dim-ext { stroke: #212121; stroke-width: 3; }
      .dim-label { font-size: 81px; font-family: Arial; fill: #222; }
      .beam-label { font-size: 81px; font-family: Arial; fill: #555; }
      .col-label { font-size: 81px; font-family: Arial; fill: #222; }
      .support-label { font-size: 81px; font-family: Arial; fill: #222; dominant-baseline: middle; }
      .dim-dot { fill: #212121; }
    </style>
  </defs>

  <!-- Beam -->
  <rect x="100" y="160" width="2540" height="165" class="beam"/>
  <text x="1320" y="140" class="beam-label" text-anchor="middle">Beam: 300 × 550</text>

  <!-- Fixed Support -->
  <rect x="94" y="116" width="24" height="255" class="fixed-support"/>
  <!-- Label A moved to mid height of supports y=370 -->
  <text x="100" y="370" class="support-label" text-anchor="middle">A</text>
  <g transform="translate(94,116)">
    <line x1="0" y1="0" x2="-35" y2="35" stroke="black" stroke-width="4"/>
    <line x1="0" y1="28.33" x2="-35" y2="63.33" stroke="black" stroke-width="4"/>
    <line x1="0" y1="56.66" x2="-35" y2="91.66" stroke="black" stroke-width="4"/>
    <line x1="0" y1="85" x2="-35" y2="120" stroke="black" stroke-width="4"/>
    <line x1="0" y1="113.33" x2="-35" y2="148.33" stroke="black" stroke-width="4"/>
    <line x1="0" y1="141.66" x2="-35" y2="176.66" stroke="black" stroke-width="4"/>
    <line x1="0" y1="170" x2="-35" y2="205" stroke="black" stroke-width="4"/>
    <line x1="0" y1="198.33" x2="-35" y2="233.33" stroke="black" stroke-width="4"/>
    <line x1="0" y1="226.66" x2="-35" y2="261.66" stroke="black" stroke-width="4"/>
    <line x1="0" y1="255" x2="-35" y2="290" stroke="black" stroke-width="4"/>
  </g>

  <!-- Columns B, C, D red supports with labels at mid height y=370 -->
  <rect x="925" y="325" width="165" height="90" class="red-support"/>
  <text x="1007.5" y="370" class="col-label" text-anchor="middle" dominant-baseline="middle">B</text>
  <text x="1007.5" y="570" class="dim-label" text-anchor="middle">550</text>

  <rect x="1825" y="325" width="135" height="90" class="red-support"/>
  <text x="1892.5" y="370" class="col-label" text-anchor="middle" dominant-baseline="middle">C</text>
  <text x="1892.5" y="570" class="dim-label" text-anchor="middle">450</text>

  <rect x="2550" y="325" width="90" height="90" class="red-support"/>
  <text x="2595" y="370" class="col-label" text-anchor="middle" dominant-baseline="middle">D</text>
  <text x="2595" y="570" class="dim-label" text-anchor="middle">300</text>

  <!-- Clear span dimension lines -->
  <line x1="122.5" y1="480" x2="925" y2="480" class="span-dim-line"/>
  <line x1="1090" y1="480" x2="1960" y2="480" class="span-dim-line"/>
  <line x1="1960" y1="480" x2="2640" y2="480" class="span-dim-line"/>

  <!-- Extension lines -->
  <line x1="122.5" y1="450" x2="122.5" y2="510" class="dim-ext"/>
  <line x1="925" y1="450" x2="925" y2="510" class="dim-ext"/>
  <line x1="1090" y1="450" x2="1090" y2="510" class="dim-ext"/>
  <line x1="1960" y1="450" x2="1960" y2="510" class="dim-ext"/>
  <line x1="1960" y1="450" x2="1960" y2="510" class="dim-ext"/>
  <line x1="2640" y1="450" x2="2640" y2="510" class="dim-ext"/>

  <!-- Dots -->
  <circle cx="122.5" cy="480" r="12" class="dim-dot"/>
  <circle cx="925" cy="480" r="12" class="dim-dot"/>
  <circle cx="1090" cy="480" r="12" class="dim-dot"/>
  <circle cx="1960" cy="480" r="12" class="dim-dot"/>
  <circle cx="1960" cy="480" r="12" class="dim-dot"/>
  <circle cx="2640" cy="480" r="12" class="dim-dot"/>

  <!-- Clear span dimension texts -->
  <text x="523" y="570" class="dim-label" text-anchor="middle">5500</text>
  <text x="1525" y="570" class="dim-label" text-anchor="middle">6000</text>
  <text x="2255" y="570" class="dim-label" text-anchor="middle">5500</text>

  <!-- Support width dimension lines -->
  <line x1="925" y1="480" x2="1090" y2="480" class="span-dim-line"/>
  <line x1="925" y1="450" x2="925" y2="510" class="dim-ext"/>
  <line x1="1090" y1="450" x2="1090" y2="510" class="dim-ext"/>
  <circle cx="925" cy="480" r="12" class="dim-dot"/>
  <circle cx="1090" cy="480" r="12" class="dim-dot"/>

  <line x1="1825" y1="450" x2="1825" y2="510" class="dim-ext"/>
  <circle cx="1825" cy="480" r="12" class="dim-dot"/>

  <line x1="2550" y1="480" x2="2640" y2="480" class="span-dim-line"/>
  <line x1="2550" y1="450" x2="2550" y2="510" class="dim-ext"/>
  <line x1="2640" y1="450" x2="2640" y2="510" class="dim-ext"/>
  <circle cx="2550" cy="480" r="12" class="dim-dot"/>
  <circle cx="2640" cy="480" r="12" class="dim-dot"/>

  <line x1="2640" y1="450" x2="2640" y2="510" class="dim-ext"/>
  <circle cx="2640" cy="480" r="12" class="dim-dot"/>
</svg>
