<?xml version="1.0" encoding="utf-8" standalone="no"?>
<!DOCTYPE svg PUBLIC "-//W3C//DTD SVG 1.1//EN"
  "http://www.w3.org/Graphics/SVG/1.1/DTD/svg11.dtd">
<svg xmlns:xlink="http://www.w3.org/1999/xlink" width="1230.128646pt" height="423.034375pt" viewBox="0 0 1230.128646 423.034375" xmlns="http://www.w3.org/2000/svg" version="1.1">
 <metadata>
  <rdf:RDF xmlns:dc="http://purl.org/dc/elements/1.1/" xmlns:cc="http://creativecommons.org/ns#" xmlns:rdf="http://www.w3.org/1999/02/22-rdf-syntax-ns#">
   <cc:Work>
    <dc:type rdf:resource="http://purl.org/dc/dcmitype/StillImage"/>
    <dc:date>2024-01-28T12:54:08.858197</dc:date>
    <dc:format>image/svg+xml</dc:format>
    <dc:creator>
     <cc:Agent>
      <dc:title>Matplotlib v3.6.1, https://matplotlib.org/</dc:title>
     </cc:Agent>
    </dc:creator>
   </cc:Work>
  </rdf:RDF>
 </metadata>
 <defs>
  <style type="text/css">*{stroke-linejoin: round; stroke-linecap: butt}</style>
 </defs>
 <g id="figure_1">
  <g id="patch_1">
   <path d="M 0 423.034375 
L 1230.128646 423.034375 
L 1230.128646 0 
L 0 0 
z
" style="fill: #ffffff"/>
  </g>
  <g id="axes_1">
   <g id="patch_2">
    <path d="M 28.899187 385.478125 
L 246.795187 385.478125 
L 246.795187 22.318125 
L 28.899187 22.318125 
z
" style="fill: #ffffff"/>
   </g>
   <g id="PolyCollection_1">
    <defs>
     <path id="maaa8afb0b1" d="M 38.803551 -54.063523 
L 38.803551 -54.063523 
L 236.890824 -54.063523 
L 236.890824 -384.208977 
L 38.803551 -384.208977 
L 38.803551 -54.063523 
L 38.803551 -54.063523 
L 38.803551 -54.063523 
L 38.803551 -54.063523 
L 236.890824 -54.063523 
L 236.890824 -54.063523 
L 38.803551 -54.063523 
z
" style="stroke: #d3d3d3"/>
    </defs>
    <g clip-path="url(#pacf4d1317b)">
     <use xlink:href="#maaa8afb0b1" x="0" y="423.034375" style="fill: #d3d3d3; stroke: #d3d3d3"/>
    </g>
   </g>
   <g id="matplotlib.axis_1">
    <g id="text_1">
     <!-- b -->
     <g transform="translate(134.672969 400.576562) scale(0.1 -0.1)">
      <defs>
       <path id="DejaVuSans-62" d="M 3116 1747 
Q 3116 2381 2855 2742 
Q 2594 3103 2138 3103 
Q 1681 3103 1420 2742 
Q 1159 2381 1159 1747 
Q 1159 1113 1420 752 
Q 1681 391 2138 391 
Q 2594 391 2855 752 
Q 3116 1113 3116 1747 
z
M 1159 2969 
Q 1341 3281 1617 3432 
Q 1894 3584 2278 3584 
Q 2916 3584 3314 3078 
Q 3713 2572 3713 1747 
Q 3713 922 3314 415 
Q 2916 -91 2278 -91 
Q 1894 -91 1617 61 
Q 1341 213 1159 525 
L 1159 0 
L 581 0 
L 581 4863 
L 1159 4863 
L 1159 2969 
z
" transform="scale(0.015625)"/>
      </defs>
      <use xlink:href="#DejaVuSans-62"/>
     </g>
    </g>
   </g>
   <g id="matplotlib.axis_2">
    <g id="text_2">
     <!-- d -->
     <g transform="translate(19.3195 207.072344) rotate(-90) scale(0.1 -0.1)">
      <defs>
       <path id="DejaVuSans-64" d="M 2906 2969 
L 2906 4863 
L 3481 4863 
L 3481 0 
L 2906 0 
L 2906 525 
Q 2725 213 2448 61 
Q 2172 -91 1784 -91 
Q 1150 -91 751 415 
Q 353 922 353 1747 
Q 353 2572 751 3078 
Q 1150 3584 1784 3584 
Q 2172 3584 2448 3432 
Q 2725 3281 2906 2969 
z
M 947 1747 
Q 947 1113 1208 752 
Q 1469 391 1925 391 
Q 2381 391 2643 752 
Q 2906 1113 2906 1747 
Q 2906 2381 2643 2742 
Q 2381 3103 1925 3103 
Q 1469 3103 1208 2742 
Q 947 2381 947 1747 
z
" transform="scale(0.015625)"/>
      </defs>
      <use xlink:href="#DejaVuSans-64"/>
     </g>
    </g>
   </g>
   <g id="line2d_1">
    <path d="M 38.803551 368.970852 
L 236.890824 368.970852 
L 236.890824 38.825398 
L 38.803551 38.825398 
L 38.803551 368.970852 
" clip-path="url(#pacf4d1317b)" style="fill: none; stroke: #000000; stroke-width: 2; stroke-linecap: square"/>
   </g>
   <g id="text_3">
    <!-- Cross-Section of Reinforced Concrete Beam -->
    <g transform="translate(7.2 16.318125) scale(0.12 -0.12)">
     <defs>
      <path id="DejaVuSans-43" d="M 4122 4306 
L 4122 3641 
Q 3803 3938 3442 4084 
Q 3081 4231 2675 4231 
Q 1875 4231 1450 3742 
Q 1025 3253 1025 2328 
Q 1025 1406 1450 917 
Q 1875 428 2675 428 
Q 3081 428 3442 575 
Q 3803 722 4122 1019 
L 4122 359 
Q 3791 134 3420 21 
Q 3050 -91 2638 -91 
Q 1578 -91 968 557 
Q 359 1206 359 2328 
Q 359 3453 968 4101 
Q 1578 4750 2638 4750 
Q 3056 4750 3426 4639 
Q 3797 4528 4122 4306 
z
" transform="scale(0.015625)"/>
      <path id="DejaVuSans-72" d="M 2631 2963 
Q 2534 3019 2420 3045 
Q 2306 3072 2169 3072 
Q 1681 3072 1420 2755 
Q 1159 2438 1159 1844 
L 1159 0 
L 581 0 
L 581 3500 
L 1159 3500 
L 1159 2956 
Q 1341 3275 1631 3429 
Q 1922 3584 2338 3584 
Q 2397 3584 2469 3576 
Q 2541 3569 2628 3553 
L 2631 2963 
z
" transform="scale(0.015625)"/>
      <path id="DejaVuSans-6f" d="M 1959 3097 
Q 1497 3097 1228 2736 
Q 959 2375 959 1747 
Q 959 1119 1226 758 
Q 1494 397 1959 397 
Q 2419 397 2687 759 
Q 2956 1122 2956 1747 
Q 2956 2369 2687 2733 
Q 2419 3097 1959 3097 
z
M 1959 3584 
Q 2709 3584 3137 3096 
Q 3566 2609 3566 1747 
Q 3566 888 3137 398 
Q 2709 -91 1959 -91 
Q 1206 -91 779 398 
Q 353 888 353 1747 
Q 353 2609 779 3096 
Q 1206 3584 1959 3584 
z
" transform="scale(0.015625)"/>
      <path id="DejaVuSans-73" d="M 2834 3397 
L 2834 2853 
Q 2591 2978 2328 3040 
Q 2066 3103 1784 3103 
Q 1356 3103 1142 2972 
Q 928 2841 928 2578 
Q 928 2378 1081 2264 
Q 1234 2150 1697 2047 
L 1894 2003 
Q 2506 1872 2764 1633 
Q 3022 1394 3022 966 
Q 3022 478 2636 193 
Q 2250 -91 1575 -91 
Q 1294 -91 989 -36 
Q 684 19 347 128 
L 347 722 
Q 666 556 975 473 
Q 1284 391 1588 391 
Q 1994 391 2212 530 
Q 2431 669 2431 922 
Q 2431 1156 2273 1281 
Q 2116 1406 1581 1522 
L 1381 1569 
Q 847 1681 609 1914 
Q 372 2147 372 2553 
Q 372 3047 722 3315 
Q 1072 3584 1716 3584 
Q 2034 3584 2315 3537 
Q 2597 3491 2834 3397 
z
" transform="scale(0.015625)"/>
      <path id="DejaVuSans-2d" d="M 313 2009 
L 1997 2009 
L 1997 1497 
L 313 1497 
L 313 2009 
z
" transform="scale(0.015625)"/>
      <path id="DejaVuSans-53" d="M 3425 4513 
L 3425 3897 
Q 3066 4069 2747 4153 
Q 2428 4238 2131 4238 
Q 1616 4238 1336 4038 
Q 1056 3838 1056 3469 
Q 1056 3159 1242 3001 
Q 1428 2844 1947 2747 
L 2328 2669 
Q 3034 2534 3370 2195 
Q 3706 1856 3706 1288 
Q 3706 609 3251 259 
Q 2797 -91 1919 -91 
Q 1588 -91 1214 -16 
Q 841 59 441 206 
L 441 856 
Q 825 641 1194 531 
Q 1563 422 1919 422 
Q 2459 422 2753 634 
Q 3047 847 3047 1241 
Q 3047 1584 2836 1778 
Q 2625 1972 2144 2069 
L 1759 2144 
Q 1053 2284 737 2584 
Q 422 2884 422 3419 
Q 422 4038 858 4394 
Q 1294 4750 2059 4750 
Q 2388 4750 2728 4690 
Q 3069 4631 3425 4513 
z
" transform="scale(0.015625)"/>
      <path id="DejaVuSans-65" d="M 3597 1894 
L 3597 1613 
L 953 1613 
Q 991 1019 1311 708 
Q 1631 397 2203 397 
Q 2534 397 2845 478 
Q 3156 559 3463 722 
L 3463 178 
Q 3153 47 2828 -22 
Q 2503 -91 2169 -91 
Q 1331 -91 842 396 
Q 353 884 353 1716 
Q 353 2575 817 3079 
Q 1281 3584 2069 3584 
Q 2775 3584 3186 3129 
Q 3597 2675 3597 1894 
z
M 3022 2063 
Q 3016 2534 2758 2815 
Q 2500 3097 2075 3097 
Q 1594 3097 1305 2825 
Q 1016 2553 972 2059 
L 3022 2063 
z
" transform="scale(0.015625)"/>
      <path id="DejaVuSans-63" d="M 3122 3366 
L 3122 2828 
Q 2878 2963 2633 3030 
Q 2388 3097 2138 3097 
Q 1578 3097 1268 2742 
Q 959 2388 959 1747 
Q 959 1106 1268 751 
Q 1578 397 2138 397 
Q 2388 397 2633 464 
Q 2878 531 3122 666 
L 3122 134 
Q 2881 22 2623 -34 
Q 2366 -91 2075 -91 
Q 1284 -91 818 406 
Q 353 903 353 1747 
Q 353 2603 823 3093 
Q 1294 3584 2113 3584 
Q 2378 3584 2631 3529 
Q 2884 3475 3122 3366 
z
" transform="scale(0.015625)"/>
      <path id="DejaVuSans-74" d="M 1172 4494 
L 1172 3500 
L 2356 3500 
L 2356 3053 
L 1172 3053 
L 1172 1153 
Q 1172 725 1289 603 
Q 1406 481 1766 481 
L 2356 481 
L 2356 0 
L 1766 0 
Q 1100 0 847 248 
Q 594 497 594 1153 
L 594 3053 
L 172 3053 
L 172 3500 
L 594 3500 
L 594 4494 
L 1172 4494 
z
" transform="scale(0.015625)"/>
      <path id="DejaVuSans-69" d="M 603 3500 
L 1178 3500 
L 1178 0 
L 603 0 
L 603 3500 
z
M 603 4863 
L 1178 4863 
L 1178 4134 
L 603 4134 
L 603 4863 
z
" transform="scale(0.015625)"/>
      <path id="DejaVuSans-6e" d="M 3513 2113 
L 3513 0 
L 2938 0 
L 2938 2094 
Q 2938 2591 2744 2837 
Q 2550 3084 2163 3084 
Q 1697 3084 1428 2787 
Q 1159 2491 1159 1978 
L 1159 0 
L 581 0 
L 581 3500 
L 1159 3500 
L 1159 2956 
Q 1366 3272 1645 3428 
Q 1925 3584 2291 3584 
Q 2894 3584 3203 3211 
Q 3513 2838 3513 2113 
z
" transform="scale(0.015625)"/>
      <path id="DejaVuSans-20" transform="scale(0.015625)"/>
      <path id="DejaVuSans-66" d="M 2375 4863 
L 2375 4384 
L 1825 4384 
Q 1516 4384 1395 4259 
Q 1275 4134 1275 3809 
L 1275 3500 
L 2222 3500 
L 2222 3053 
L 1275 3053 
L 1275 0 
L 697 0 
L 697 3053 
L 147 3053 
L 147 3500 
L 697 3500 
L 697 3744 
Q 697 4328 969 4595 
Q 1241 4863 1831 4863 
L 2375 4863 
z
" transform="scale(0.015625)"/>
      <path id="DejaVuSans-52" d="M 2841 2188 
Q 3044 2119 3236 1894 
Q 3428 1669 3622 1275 
L 4263 0 
L 3584 0 
L 2988 1197 
Q 2756 1666 2539 1819 
Q 2322 1972 1947 1972 
L 1259 1972 
L 1259 0 
L 628 0 
L 628 4666 
L 2053 4666 
Q 2853 4666 3247 4331 
Q 3641 3997 3641 3322 
Q 3641 2881 3436 2590 
Q 3231 2300 2841 2188 
z
M 1259 4147 
L 1259 2491 
L 2053 2491 
Q 2509 2491 2742 2702 
Q 2975 2913 2975 3322 
Q 2975 3731 2742 3939 
Q 2509 4147 2053 4147 
L 1259 4147 
z
" transform="scale(0.015625)"/>
      <path id="DejaVuSans-42" d="M 1259 2228 
L 1259 519 
L 2272 519 
Q 2781 519 3026 730 
Q 3272 941 3272 1375 
Q 3272 1813 3026 2020 
Q 2781 2228 2272 2228 
L 1259 2228 
z
M 1259 4147 
L 1259 2741 
L 2194 2741 
Q 2656 2741 2882 2914 
Q 3109 3088 3109 3444 
Q 3109 3797 2882 3972 
Q 2656 4147 2194 4147 
L 1259 4147 
z
M 628 4666 
L 2241 4666 
Q 2963 4666 3353 4366 
Q 3744 4066 3744 3513 
Q 3744 3084 3544 2831 
Q 3344 2578 2956 2516 
Q 3422 2416 3680 2098 
Q 3938 1781 3938 1306 
Q 3938 681 3513 340 
Q 3088 0 2303 0 
L 628 0 
L 628 4666 
z
" transform="scale(0.015625)"/>
      <path id="DejaVuSans-61" d="M 2194 1759 
Q 1497 1759 1228 1600 
Q 959 1441 959 1056 
Q 959 750 1161 570 
Q 1363 391 1709 391 
Q 2188 391 2477 730 
Q 2766 1069 2766 1631 
L 2766 1759 
L 2194 1759 
z
M 3341 1997 
L 3341 0 
L 2766 0 
L 2766 531 
Q 2569 213 2275 61 
Q 1981 -91 1556 -91 
Q 1019 -91 701 211 
Q 384 513 384 1019 
Q 384 1609 779 1909 
Q 1175 2209 1959 2209 
L 2766 2209 
L 2766 2266 
Q 2766 2663 2505 2880 
Q 2244 3097 1772 3097 
Q 1472 3097 1187 3025 
Q 903 2953 641 2809 
L 641 3341 
Q 956 3463 1253 3523 
Q 1550 3584 1831 3584 
Q 2591 3584 2966 3190 
Q 3341 2797 3341 1997 
z
" transform="scale(0.015625)"/>
      <path id="DejaVuSans-6d" d="M 3328 2828 
Q 3544 3216 3844 3400 
Q 4144 3584 4550 3584 
Q 5097 3584 5394 3201 
Q 5691 2819 5691 2113 
L 5691 0 
L 5113 0 
L 5113 2094 
Q 5113 2597 4934 2840 
Q 4756 3084 4391 3084 
Q 3944 3084 3684 2787 
Q 3425 2491 3425 1978 
L 3425 0 
L 2847 0 
L 2847 2094 
Q 2847 2600 2669 2842 
Q 2491 3084 2119 3084 
Q 1678 3084 1418 2786 
Q 1159 2488 1159 1978 
L 1159 0 
L 581 0 
L 581 3500 
L 1159 3500 
L 1159 2956 
Q 1356 3278 1631 3431 
Q 1906 3584 2284 3584 
Q 2666 3584 2933 3390 
Q 3200 3197 3328 2828 
z
" transform="scale(0.015625)"/>
     </defs>
     <use xlink:href="#DejaVuSans-43"/>
     <use xlink:href="#DejaVuSans-72" x="69.824219"/>
     <use xlink:href="#DejaVuSans-6f" x="108.6875"/>
     <use xlink:href="#DejaVuSans-73" x="169.869141"/>
     <use xlink:href="#DejaVuSans-73" x="221.96875"/>
     <use xlink:href="#DejaVuSans-2d" x="274.068359"/>
     <use xlink:href="#DejaVuSans-53" x="310.152344"/>
     <use xlink:href="#DejaVuSans-65" x="373.628906"/>
     <use xlink:href="#DejaVuSans-63" x="435.152344"/>
     <use xlink:href="#DejaVuSans-74" x="490.132812"/>
     <use xlink:href="#DejaVuSans-69" x="529.341797"/>
     <use xlink:href="#DejaVuSans-6f" x="557.125"/>
     <use xlink:href="#DejaVuSans-6e" x="618.306641"/>
     <use xlink:href="#DejaVuSans-20" x="681.685547"/>
     <use xlink:href="#DejaVuSans-6f" x="713.472656"/>
     <use xlink:href="#DejaVuSans-66" x="774.654297"/>
     <use xlink:href="#DejaVuSans-20" x="809.859375"/>
     <use xlink:href="#DejaVuSans-52" x="841.646484"/>
     <use xlink:href="#DejaVuSans-65" x="906.628906"/>
     <use xlink:href="#DejaVuSans-69" x="968.152344"/>
     <use xlink:href="#DejaVuSans-6e" x="995.935547"/>
     <use xlink:href="#DejaVuSans-66" x="1059.314453"/>
     <use xlink:href="#DejaVuSans-6f" x="1094.519531"/>
     <use xlink:href="#DejaVuSans-72" x="1155.701172"/>
     <use xlink:href="#DejaVuSans-63" x="1194.564453"/>
     <use xlink:href="#DejaVuSans-65" x="1249.544922"/>
     <use xlink:href="#DejaVuSans-64" x="1311.068359"/>
     <use xlink:href="#DejaVuSans-20" x="1374.544922"/>
     <use xlink:href="#DejaVuSans-43" x="1406.332031"/>
     <use xlink:href="#DejaVuSans-6f" x="1476.15625"/>
     <use xlink:href="#DejaVuSans-6e" x="1537.337891"/>
     <use xlink:href="#DejaVuSans-63" x="1600.716797"/>
     <use xlink:href="#DejaVuSans-72" x="1655.697266"/>
     <use xlink:href="#DejaVuSans-65" x="1694.560547"/>
     <use xlink:href="#DejaVuSans-74" x="1756.083984"/>
     <use xlink:href="#DejaVuSans-65" x="1795.292969"/>
     <use xlink:href="#DejaVuSans-20" x="1856.816406"/>
     <use xlink:href="#DejaVuSans-42" x="1888.603516"/>
     <use xlink:href="#DejaVuSans-65" x="1957.207031"/>
     <use xlink:href="#DejaVuSans-61" x="2018.730469"/>
     <use xlink:href="#DejaVuSans-6d" x="2080.009766"/>
    </g>
   </g>
  </g>
  <g id="axes_2">
   <g id="patch_3">
    <path d="M 389.740521 385.478125 
L 775.047188 385.478125 
L 775.047188 22.318125 
L 389.740521 22.318125 
z
" style="fill: #ffffff"/>
   </g>
   <g id="PolyCollection_2">
    <defs>
     <path id="mf6612232ce" d="M 553.670994 -246.208177 
L 554.371551 -246.208177 
L 554.371551 -246.868468 
L 554.371551 -247.528759 
L 554.371551 -248.18905 
L 554.371551 -248.849341 
L 554.371551 -249.509632 
L 554.371551 -250.169923 
L 554.371551 -250.830214 
L 554.371551 -251.490505 
L 554.371551 -252.150795 
L 554.371551 -252.811086 
L 554.371551 -253.471377 
L 554.371551 -254.131668 
L 554.371551 -254.791959 
L 554.371551 -255.45225 
L 554.371551 -256.112541 
L 554.371551 -256.772832 
L 554.371551 -257.433123 
L 554.371551 -258.093414 
L 554.371551 -258.753705 
L 554.371551 -259.413995 
L 554.371551 -260.074286 
L 554.371551 -260.734577 
L 554.371551 -261.394868 
L 554.371551 -262.055159 
L 554.371551 -262.71545 
L 554.371551 -263.375741 
L 554.371551 -264.036032 
L 554.371551 -264.696323 
L 554.371551 -265.356614 
L 554.371551 -266.016905 
L 554.371551 -266.677195 
L 554.371551 -267.337486 
L 554.371551 -267.997777 
L 554.371551 -268.658068 
L 554.371551 -269.318359 
L 554.371551 -269.97865 
L 554.371551 -270.638941 
L 554.371551 -271.299232 
L 554.371551 -271.959523 
L 554.371551 -272.619814 
L 554.371551 -273.280105 
L 554.371551 -273.940395 
L 554.371551 -274.600686 
L 554.371551 -275.260977 
L 554.371551 -275.921268 
L 554.371551 -276.581559 
L 554.371551 -277.24185 
L 554.371551 -277.902141 
L 554.371551 -278.562432 
L 554.371551 -279.222723 
L 554.371551 -279.883014 
L 554.371551 -280.543305 
L 554.371551 -281.203595 
L 554.371551 -281.863886 
L 554.371551 -282.524177 
L 554.371551 -283.184468 
L 554.371551 -283.844759 
L 554.371551 -284.50505 
L 554.371551 -285.165341 
L 554.371551 -285.825632 
L 554.371551 -286.485923 
L 554.371551 -287.146214 
L 554.371551 -287.806505 
L 554.371551 -288.466795 
L 554.371551 -289.127086 
L 554.371551 -289.787377 
L 554.371551 -290.447668 
L 554.371551 -291.107959 
L 554.371551 -291.76825 
L 554.371551 -292.428541 
L 554.371551 -293.088832 
L 554.371551 -293.749123 
L 554.371551 -294.409414 
L 554.371551 -295.069705 
L 554.371551 -295.729995 
L 554.371551 -296.390286 
L 554.371551 -297.050577 
L 554.371551 -297.710868 
L 554.371551 -298.371159 
L 554.371551 -299.03145 
L 554.371551 -299.691741 
L 554.371551 -300.352032 
L 554.371551 -301.012323 
L 554.371551 -301.672614 
L 554.371551 -302.332905 
L 554.371551 -302.993195 
L 554.371551 -303.653486 
L 554.371551 -304.313777 
L 554.371551 -304.974068 
L 554.371551 -305.634359 
L 554.371551 -306.29465 
L 554.371551 -306.954941 
L 554.371551 -307.615232 
L 554.371551 -308.275523 
L 554.371551 -308.935814 
L 554.371551 -309.596105 
L 554.371551 -310.256395 
L 554.371551 -310.916686 
L 554.371551 -311.576977 
L 554.371551 -312.237268 
L 554.371551 -312.897559 
L 554.371551 -313.55785 
L 554.371551 -314.218141 
L 554.371551 -314.878432 
L 554.371551 -315.538723 
L 554.371551 -316.199014 
L 554.371551 -316.859305 
L 554.371551 -317.519595 
L 554.371551 -318.179886 
L 554.371551 -318.840177 
L 554.371551 -319.500468 
L 554.371551 -320.160759 
L 554.371551 -320.82105 
L 554.371551 -321.481341 
L 554.371551 -322.141632 
L 554.371551 -322.801923 
L 554.371551 -323.462214 
L 554.371551 -324.122505 
L 554.371551 -324.782795 
L 554.371551 -325.443086 
L 554.371551 -326.103377 
L 554.371551 -326.763668 
L 554.371551 -327.423959 
L 554.371551 -328.08425 
L 554.371551 -328.744541 
L 554.371551 -329.404832 
L 554.371551 -330.065123 
L 554.371551 -330.725414 
L 554.371551 -331.385705 
L 554.371551 -332.045995 
L 554.371551 -332.706286 
L 554.371551 -333.366577 
L 554.371551 -334.026868 
L 554.371551 -334.687159 
L 554.371551 -335.34745 
L 554.371551 -336.007741 
L 554.371551 -336.668032 
L 554.371551 -337.328323 
L 554.371551 -337.988614 
L 554.371551 -338.648905 
L 554.371551 -339.309195 
L 554.371551 -339.969486 
L 554.371551 -340.629777 
L 554.371551 -341.290068 
L 554.371551 -341.950359 
L 554.371551 -342.61065 
L 554.371551 -343.270941 
L 554.371551 -343.931232 
L 554.371551 -344.591523 
L 554.371551 -345.251814 
L 554.371551 -345.912105 
L 554.371551 -346.572395 
L 554.371551 -347.232686 
L 554.371551 -347.892977 
L 554.371551 -348.553268 
L 554.371551 -349.213559 
L 554.371551 -349.87385 
L 554.371551 -350.534141 
L 554.371551 -351.194432 
L 554.371551 -351.854723 
L 554.371551 -352.515014 
L 554.371551 -353.175305 
L 554.371551 -353.835595 
L 554.371551 -354.495886 
L 554.371551 -355.156177 
L 554.371551 -355.816468 
L 554.371551 -356.476759 
L 554.371551 -357.13705 
L 554.371551 -357.797341 
L 554.371551 -358.457632 
L 554.371551 -359.117923 
L 554.371551 -359.778214 
L 554.371551 -360.438505 
L 554.371551 -361.098795 
L 554.371551 -361.759086 
L 554.371551 -362.419377 
L 554.371551 -363.079668 
L 554.371551 -363.739959 
L 554.371551 -364.40025 
L 554.371551 -365.060541 
L 554.371551 -365.720832 
L 554.371551 -366.381123 
L 554.371551 -367.041414 
L 554.371551 -367.701705 
L 554.371551 -368.361995 
L 554.371551 -369.022286 
L 554.371551 -369.682577 
L 554.371551 -370.342868 
L 554.371551 -371.003159 
L 554.371551 -371.66345 
L 554.371551 -372.323741 
L 554.371551 -372.984032 
L 554.371551 -373.644323 
L 554.371551 -374.304614 
L 554.371551 -374.964905 
L 554.371551 -375.625195 
L 554.371551 -376.285486 
L 554.371551 -376.945777 
L 554.371551 -377.606068 
L 554.371551 -378.266359 
L 554.371551 -378.92665 
L 554.371551 -379.586941 
L 554.371551 -380.247232 
L 554.371551 -380.907523 
L 554.371551 -381.567814 
L 554.371551 -382.228105 
L 554.371551 -382.888395 
L 554.371551 -383.548686 
L 554.371551 -384.208977 
L 407.25446 -384.208977 
L 407.25446 -384.208977 
L 407.955018 -383.548686 
L 408.655575 -382.888395 
L 409.356133 -382.228105 
L 410.056691 -381.567814 
L 410.757248 -380.907523 
L 411.457806 -380.247232 
L 412.158363 -379.586941 
L 412.858921 -378.92665 
L 413.559478 -378.266359 
L 414.260036 -377.606068 
L 414.960594 -376.945777 
L 415.661151 -376.285486 
L 416.361709 -375.625195 
L 417.062266 -374.964905 
L 417.762824 -374.304614 
L 418.463381 -373.644323 
L 419.163939 -372.984032 
L 419.864497 -372.323741 
L 420.565054 -371.66345 
L 421.265612 -371.003159 
L 421.966169 -370.342868 
L 422.666727 -369.682577 
L 423.367284 -369.022286 
L 424.067842 -368.361995 
L 424.7684 -367.701705 
L 425.468957 -367.041414 
L 426.169515 -366.381123 
L 426.870072 -365.720832 
L 427.57063 -365.060541 
L 428.271188 -364.40025 
L 428.971745 -363.739959 
L 429.672303 -363.079668 
L 430.37286 -362.419377 
L 431.073418 -361.759086 
L 431.773975 -361.098795 
L 432.474533 -360.438505 
L 433.175091 -359.778214 
L 433.875648 -359.117923 
L 434.576206 -358.457632 
L 435.276763 -357.797341 
L 435.977321 -357.13705 
L 436.677878 -356.476759 
L 437.378436 -355.816468 
L 438.078994 -355.156177 
L 438.779551 -354.495886 
L 439.480109 -353.835595 
L 440.180666 -353.175305 
L 440.881224 -352.515014 
L 441.581781 -351.854723 
L 442.282339 -351.194432 
L 442.982897 -350.534141 
L 443.683454 -349.87385 
L 444.384012 -349.213559 
L 445.084569 -348.553268 
L 445.785127 -347.892977 
L 446.485684 -347.232686 
L 447.186242 -346.572395 
L 447.8868 -345.912105 
L 448.587357 -345.251814 
L 449.287915 -344.591523 
L 449.988472 -343.931232 
L 450.68903 -343.270941 
L 451.389588 -342.61065 
L 452.090145 -341.950359 
L 452.790703 -341.290068 
L 453.49126 -340.629777 
L 454.191818 -339.969486 
L 454.892375 -339.309195 
L 455.592933 -338.648905 
L 456.293491 -337.988614 
L 456.994048 -337.328323 
L 457.694606 -336.668032 
L 458.395163 -336.007741 
L 459.095721 -335.34745 
L 459.796278 -334.687159 
L 460.496836 -334.026868 
L 461.197394 -333.366577 
L 461.897951 -332.706286 
L 462.598509 -332.045995 
L 463.299066 -331.385705 
L 463.999624 -330.725414 
L 464.700181 -330.065123 
L 465.400739 -329.404832 
L 466.101297 -328.744541 
L 466.801854 -328.08425 
L 467.502412 -327.423959 
L 468.202969 -326.763668 
L 468.903527 -326.103377 
L 469.604084 -325.443086 
L 470.304642 -324.782795 
L 471.0052 -324.122505 
L 471.705757 -323.462214 
L 472.406315 -322.801923 
L 473.106872 -322.141632 
L 473.80743 -321.481341 
L 474.507988 -320.82105 
L 475.208545 -320.160759 
L 475.909103 -319.500468 
L 476.60966 -318.840177 
L 477.310218 -318.179886 
L 478.010775 -317.519595 
L 478.711333 -316.859305 
L 479.411891 -316.199014 
L 480.112448 -315.538723 
L 480.813006 -314.878432 
L 481.513563 -314.218141 
L 482.214121 -313.55785 
L 482.914678 -312.897559 
L 483.615236 -312.237268 
L 484.315794 -311.576977 
L 485.016351 -310.916686 
L 485.716909 -310.256395 
L 486.417466 -309.596105 
L 487.118024 -308.935814 
L 487.818581 -308.275523 
L 488.519139 -307.615232 
L 489.219697 -306.954941 
L 489.920254 -306.29465 
L 490.620812 -305.634359 
L 491.321369 -304.974068 
L 492.021927 -304.313777 
L 492.722484 -303.653486 
L 493.423042 -302.993195 
L 494.1236 -302.332905 
L 494.824157 -301.672614 
L 495.524715 -301.012323 
L 496.225272 -300.352032 
L 496.92583 -299.691741 
L 497.626388 -299.03145 
L 498.326945 -298.371159 
L 499.027503 -297.710868 
L 499.72806 -297.050577 
L 500.428618 -296.390286 
L 501.129175 -295.729995 
L 501.829733 -295.069705 
L 502.530291 -294.409414 
L 503.230848 -293.749123 
L 503.931406 -293.088832 
L 504.631963 -292.428541 
L 505.332521 -291.76825 
L 506.033078 -291.107959 
L 506.733636 -290.447668 
L 507.434194 -289.787377 
L 508.134751 -289.127086 
L 508.835309 -288.466795 
L 509.535866 -287.806505 
L 510.236424 -287.146214 
L 510.936981 -286.485923 
L 511.637539 -285.825632 
L 512.338097 -285.165341 
L 513.038654 -284.50505 
L 513.739212 -283.844759 
L 514.439769 -283.184468 
L 515.140327 -282.524177 
L 515.840884 -281.863886 
L 516.541442 -281.203595 
L 517.242 -280.543305 
L 517.942557 -279.883014 
L 518.643115 -279.222723 
L 519.343672 -278.562432 
L 520.04423 -277.902141 
L 520.744788 -277.24185 
L 521.445345 -276.581559 
L 522.145903 -275.921268 
L 522.84646 -275.260977 
L 523.547018 -274.600686 
L 524.247575 -273.940395 
L 524.948133 -273.280105 
L 525.648691 -272.619814 
L 526.349248 -271.959523 
L 527.049806 -271.299232 
L 527.750363 -270.638941 
L 528.450921 -269.97865 
L 529.151478 -269.318359 
L 529.852036 -268.658068 
L 530.552594 -267.997777 
L 531.253151 -267.337486 
L 531.953709 -266.677195 
L 532.654266 -266.016905 
L 533.354824 -265.356614 
L 534.055381 -264.696323 
L 534.755939 -264.036032 
L 535.456497 -263.375741 
L 536.157054 -262.71545 
L 536.857612 -262.055159 
L 537.558169 -261.394868 
L 538.258727 -260.734577 
L 538.959284 -260.074286 
L 539.659842 -259.413995 
L 540.3604 -258.753705 
L 541.060957 -258.093414 
L 541.761515 -257.433123 
L 542.462072 -256.772832 
L 543.16263 -256.112541 
L 543.863188 -255.45225 
L 544.563745 -254.791959 
L 545.264303 -254.131668 
L 545.96486 -253.471377 
L 546.665418 -252.811086 
L 547.365975 -252.150795 
L 548.066533 -251.490505 
L 548.767091 -250.830214 
L 549.467648 -250.169923 
L 550.168206 -249.509632 
L 550.868763 -248.849341 
L 551.569321 -248.18905 
L 552.269878 -247.528759 
L 552.970436 -246.868468 
L 553.670994 -246.208177 
z
" style="stroke: #008000; stroke-opacity: 0.5"/>
    </defs>
    <g clip-path="url(#p80dc5d70aa)">
     <use xlink:href="#mf6612232ce" x="0" y="423.034375" style="fill: #008000; fill-opacity: 0.5; stroke: #008000; stroke-opacity: 0.5"/>
    </g>
   </g>
   <g id="PolyCollection_3">
    <defs>
     <path id="meddaa1a9ed" d="M 757.533248 -54.063523 
L 554.371551 -54.063523 
L 554.371551 -54.723814 
L 554.371551 -55.384105 
L 554.371551 -56.044395 
L 554.371551 -56.704686 
L 554.371551 -57.364977 
L 554.371551 -58.025268 
L 554.371551 -58.685559 
L 554.371551 -59.34585 
L 554.371551 -60.006141 
L 554.371551 -60.666432 
L 554.371551 -61.326723 
L 554.371551 -61.987014 
L 554.371551 -62.647305 
L 554.371551 -63.307595 
L 554.371551 -63.967886 
L 554.371551 -64.628177 
L 554.371551 -65.288468 
L 554.371551 -65.948759 
L 554.371551 -66.60905 
L 554.371551 -67.269341 
L 554.371551 -67.929632 
L 554.371551 -68.589923 
L 554.371551 -69.250214 
L 554.371551 -69.910505 
L 554.371551 -70.570795 
L 554.371551 -71.231086 
L 554.371551 -71.891377 
L 554.371551 -72.551668 
L 554.371551 -73.211959 
L 554.371551 -73.87225 
L 554.371551 -74.532541 
L 554.371551 -75.192832 
L 554.371551 -75.853123 
L 554.371551 -76.513414 
L 554.371551 -77.173705 
L 554.371551 -77.833995 
L 554.371551 -78.494286 
L 554.371551 -79.154577 
L 554.371551 -79.814868 
L 554.371551 -80.475159 
L 554.371551 -81.13545 
L 554.371551 -81.795741 
L 554.371551 -82.456032 
L 554.371551 -83.116323 
L 554.371551 -83.776614 
L 554.371551 -84.436905 
L 554.371551 -85.097195 
L 554.371551 -85.757486 
L 554.371551 -86.417777 
L 554.371551 -87.078068 
L 554.371551 -87.738359 
L 554.371551 -88.39865 
L 554.371551 -89.058941 
L 554.371551 -89.719232 
L 554.371551 -90.379523 
L 554.371551 -91.039814 
L 554.371551 -91.700105 
L 554.371551 -92.360395 
L 554.371551 -93.020686 
L 554.371551 -93.680977 
L 554.371551 -94.341268 
L 554.371551 -95.001559 
L 554.371551 -95.66185 
L 554.371551 -96.322141 
L 554.371551 -96.982432 
L 554.371551 -97.642723 
L 554.371551 -98.303014 
L 554.371551 -98.963305 
L 554.371551 -99.623595 
L 554.371551 -100.283886 
L 554.371551 -100.944177 
L 554.371551 -101.604468 
L 554.371551 -102.264759 
L 554.371551 -102.92505 
L 554.371551 -103.585341 
L 554.371551 -104.245632 
L 554.371551 -104.905923 
L 554.371551 -105.566214 
L 554.371551 -106.226505 
L 554.371551 -106.886795 
L 554.371551 -107.547086 
L 554.371551 -108.207377 
L 554.371551 -108.867668 
L 554.371551 -109.527959 
L 554.371551 -110.18825 
L 554.371551 -110.848541 
L 554.371551 -111.508832 
L 554.371551 -112.169123 
L 554.371551 -112.829414 
L 554.371551 -113.489705 
L 554.371551 -114.149995 
L 554.371551 -114.810286 
L 554.371551 -115.470577 
L 554.371551 -116.130868 
L 554.371551 -116.791159 
L 554.371551 -117.45145 
L 554.371551 -118.111741 
L 554.371551 -118.772032 
L 554.371551 -119.432323 
L 554.371551 -120.092614 
L 554.371551 -120.752905 
L 554.371551 -121.413195 
L 554.371551 -122.073486 
L 554.371551 -122.733777 
L 554.371551 -123.394068 
L 554.371551 -124.054359 
L 554.371551 -124.71465 
L 554.371551 -125.374941 
L 554.371551 -126.035232 
L 554.371551 -126.695523 
L 554.371551 -127.355814 
L 554.371551 -128.016105 
L 554.371551 -128.676395 
L 554.371551 -129.336686 
L 554.371551 -129.996977 
L 554.371551 -130.657268 
L 554.371551 -131.317559 
L 554.371551 -131.97785 
L 554.371551 -132.638141 
L 554.371551 -133.298432 
L 554.371551 -133.958723 
L 554.371551 -134.619014 
L 554.371551 -135.279305 
L 554.371551 -135.939595 
L 554.371551 -136.599886 
L 554.371551 -137.260177 
L 554.371551 -137.920468 
L 554.371551 -138.580759 
L 554.371551 -139.24105 
L 554.371551 -139.901341 
L 554.371551 -140.561632 
L 554.371551 -141.221923 
L 554.371551 -141.882214 
L 554.371551 -142.542505 
L 554.371551 -143.202795 
L 554.371551 -143.863086 
L 554.371551 -144.523377 
L 554.371551 -145.183668 
L 554.371551 -145.843959 
L 554.371551 -146.50425 
L 554.371551 -147.164541 
L 554.371551 -147.824832 
L 554.371551 -148.485123 
L 554.371551 -149.145414 
L 554.371551 -149.805705 
L 554.371551 -150.465995 
L 554.371551 -151.126286 
L 554.371551 -151.786577 
L 554.371551 -152.446868 
L 554.371551 -153.107159 
L 554.371551 -153.76745 
L 554.371551 -154.427741 
L 554.371551 -155.088032 
L 554.371551 -155.748323 
L 554.371551 -156.408614 
L 554.371551 -157.068905 
L 554.371551 -157.729195 
L 554.371551 -158.389486 
L 554.371551 -159.049777 
L 554.371551 -159.710068 
L 554.371551 -160.370359 
L 554.371551 -161.03065 
L 554.371551 -161.690941 
L 554.371551 -162.351232 
L 554.371551 -163.011523 
L 554.371551 -163.671814 
L 554.371551 -164.332105 
L 554.371551 -164.992395 
L 554.371551 -165.652686 
L 554.371551 -166.312977 
L 554.371551 -166.973268 
L 554.371551 -167.633559 
L 554.371551 -168.29385 
L 554.371551 -168.954141 
L 554.371551 -169.614432 
L 554.371551 -170.274723 
L 554.371551 -170.935014 
L 554.371551 -171.595305 
L 554.371551 -172.255595 
L 554.371551 -172.915886 
L 554.371551 -173.576177 
L 554.371551 -174.236468 
L 554.371551 -174.896759 
L 554.371551 -175.55705 
L 554.371551 -176.217341 
L 554.371551 -176.877632 
L 554.371551 -177.537923 
L 554.371551 -178.198214 
L 554.371551 -178.858505 
L 554.371551 -179.518795 
L 554.371551 -180.179086 
L 554.371551 -180.839377 
L 554.371551 -181.499668 
L 554.371551 -182.159959 
L 554.371551 -182.82025 
L 554.371551 -183.480541 
L 554.371551 -184.140832 
L 554.371551 -184.801123 
L 554.371551 -185.461414 
L 554.371551 -186.121705 
L 554.371551 -186.781995 
L 554.371551 -187.442286 
L 554.371551 -188.102577 
L 554.371551 -188.762868 
L 554.371551 -189.423159 
L 554.371551 -190.08345 
L 554.371551 -190.743741 
L 554.371551 -191.404032 
L 554.371551 -192.064323 
L 554.371551 -192.724614 
L 554.371551 -193.384905 
L 554.371551 -194.045195 
L 554.371551 -194.705486 
L 554.371551 -195.365777 
L 554.371551 -196.026068 
L 554.371551 -196.686359 
L 554.371551 -197.34665 
L 554.371551 -198.006941 
L 554.371551 -198.667232 
L 554.371551 -199.327523 
L 554.371551 -199.987814 
L 554.371551 -200.648105 
L 554.371551 -201.308395 
L 554.371551 -201.968686 
L 554.371551 -202.628977 
L 554.371551 -203.289268 
L 554.371551 -203.949559 
L 554.371551 -204.60985 
L 554.371551 -205.270141 
L 554.371551 -205.930432 
L 554.371551 -206.590723 
L 554.371551 -207.251014 
L 554.371551 -207.911305 
L 554.371551 -208.571595 
L 554.371551 -209.231886 
L 554.371551 -209.892177 
L 554.371551 -210.552468 
L 554.371551 -211.212759 
L 554.371551 -211.87305 
L 554.371551 -212.533341 
L 554.371551 -213.193632 
L 554.371551 -213.853923 
L 554.371551 -214.514214 
L 554.371551 -215.174505 
L 554.371551 -215.834795 
L 554.371551 -216.495086 
L 554.371551 -217.155377 
L 554.371551 -217.815668 
L 554.371551 -218.475959 
L 554.371551 -219.13625 
L 554.371551 -219.796541 
L 554.371551 -220.456832 
L 554.371551 -221.117123 
L 554.371551 -221.777414 
L 554.371551 -222.437705 
L 554.371551 -223.097995 
L 554.371551 -223.758286 
L 554.371551 -224.418577 
L 554.371551 -225.078868 
L 554.371551 -225.739159 
L 554.371551 -226.39945 
L 554.371551 -227.059741 
L 554.371551 -227.720032 
L 554.371551 -228.380323 
L 554.371551 -229.040614 
L 554.371551 -229.700905 
L 554.371551 -230.361195 
L 554.371551 -231.021486 
L 554.371551 -231.681777 
L 554.371551 -232.342068 
L 554.371551 -233.002359 
L 554.371551 -233.66265 
L 554.371551 -234.322941 
L 554.371551 -234.983232 
L 554.371551 -235.643523 
L 554.371551 -236.303814 
L 554.371551 -236.964105 
L 554.371551 -237.624395 
L 554.371551 -238.284686 
L 554.371551 -238.944977 
L 554.371551 -239.605268 
L 554.371551 -240.265559 
L 554.371551 -240.92585 
L 554.371551 -241.586141 
L 554.371551 -242.246432 
L 554.371551 -242.906723 
L 554.371551 -243.567014 
L 554.371551 -244.227305 
L 554.371551 -244.887595 
L 554.371551 -245.547886 
L 554.371551 -245.547886 
L 554.371551 -245.547886 
L 555.072109 -244.887595 
L 555.772666 -244.227305 
L 556.473224 -243.567014 
L 557.173781 -242.906723 
L 557.874339 -242.246432 
L 558.574897 -241.586141 
L 559.275454 -240.92585 
L 559.976012 -240.265559 
L 560.676569 -239.605268 
L 561.377127 -238.944977 
L 562.077684 -238.284686 
L 562.778242 -237.624395 
L 563.4788 -236.964105 
L 564.179357 -236.303814 
L 564.879915 -235.643523 
L 565.580472 -234.983232 
L 566.28103 -234.322941 
L 566.981588 -233.66265 
L 567.682145 -233.002359 
L 568.382703 -232.342068 
L 569.08326 -231.681777 
L 569.783818 -231.021486 
L 570.484375 -230.361195 
L 571.184933 -229.700905 
L 571.885491 -229.040614 
L 572.586048 -228.380323 
L 573.286606 -227.720032 
L 573.987163 -227.059741 
L 574.687721 -226.39945 
L 575.388278 -225.739159 
L 576.088836 -225.078868 
L 576.789394 -224.418577 
L 577.489951 -223.758286 
L 578.190509 -223.097995 
L 578.891066 -222.437705 
L 579.591624 -221.777414 
L 580.292181 -221.117123 
L 580.992739 -220.456832 
L 581.693297 -219.796541 
L 582.393854 -219.13625 
L 583.094412 -218.475959 
L 583.794969 -217.815668 
L 584.495527 -217.155377 
L 585.196084 -216.495086 
L 585.896642 -215.834795 
L 586.5972 -215.174505 
L 587.297757 -214.514214 
L 587.998315 -213.853923 
L 588.698872 -213.193632 
L 589.39943 -212.533341 
L 590.099988 -211.87305 
L 590.800545 -211.212759 
L 591.501103 -210.552468 
L 592.20166 -209.892177 
L 592.902218 -209.231886 
L 593.602775 -208.571595 
L 594.303333 -207.911305 
L 595.003891 -207.251014 
L 595.704448 -206.590723 
L 596.405006 -205.930432 
L 597.105563 -205.270141 
L 597.806121 -204.60985 
L 598.506678 -203.949559 
L 599.207236 -203.289268 
L 599.907794 -202.628977 
L 600.608351 -201.968686 
L 601.308909 -201.308395 
L 602.009466 -200.648105 
L 602.710024 -199.987814 
L 603.410581 -199.327523 
L 604.111139 -198.667232 
L 604.811697 -198.006941 
L 605.512254 -197.34665 
L 606.212812 -196.686359 
L 606.913369 -196.026068 
L 607.613927 -195.365777 
L 608.314484 -194.705486 
L 609.015042 -194.045195 
L 609.7156 -193.384905 
L 610.416157 -192.724614 
L 611.116715 -192.064323 
L 611.817272 -191.404032 
L 612.51783 -190.743741 
L 613.218388 -190.08345 
L 613.918945 -189.423159 
L 614.619503 -188.762868 
L 615.32006 -188.102577 
L 616.020618 -187.442286 
L 616.721175 -186.781995 
L 617.421733 -186.121705 
L 618.122291 -185.461414 
L 618.822848 -184.801123 
L 619.523406 -184.140832 
L 620.223963 -183.480541 
L 620.924521 -182.82025 
L 621.625078 -182.159959 
L 622.325636 -181.499668 
L 623.026194 -180.839377 
L 623.726751 -180.179086 
L 624.427309 -179.518795 
L 625.127866 -178.858505 
L 625.828424 -178.198214 
L 626.528981 -177.537923 
L 627.229539 -176.877632 
L 627.930097 -176.217341 
L 628.630654 -175.55705 
L 629.331212 -174.896759 
L 630.031769 -174.236468 
L 630.732327 -173.576177 
L 631.432884 -172.915886 
L 632.133442 -172.255595 
L 632.834 -171.595305 
L 633.534557 -170.935014 
L 634.235115 -170.274723 
L 634.935672 -169.614432 
L 635.63623 -168.954141 
L 636.336788 -168.29385 
L 637.037345 -167.633559 
L 637.737903 -166.973268 
L 638.43846 -166.312977 
L 639.139018 -165.652686 
L 639.839575 -164.992395 
L 640.540133 -164.332105 
L 641.240691 -163.671814 
L 641.941248 -163.011523 
L 642.641806 -162.351232 
L 643.342363 -161.690941 
L 644.042921 -161.03065 
L 644.743478 -160.370359 
L 645.444036 -159.710068 
L 646.144594 -159.049777 
L 646.845151 -158.389486 
L 647.545709 -157.729195 
L 648.246266 -157.068905 
L 648.946824 -156.408614 
L 649.647381 -155.748323 
L 650.347939 -155.088032 
L 651.048497 -154.427741 
L 651.749054 -153.76745 
L 652.449612 -153.107159 
L 653.150169 -152.446868 
L 653.850727 -151.786577 
L 654.551284 -151.126286 
L 655.251842 -150.465995 
L 655.9524 -149.805705 
L 656.652957 -149.145414 
L 657.353515 -148.485123 
L 658.054072 -147.824832 
L 658.75463 -147.164541 
L 659.455188 -146.50425 
L 660.155745 -145.843959 
L 660.856303 -145.183668 
L 661.55686 -144.523377 
L 662.257418 -143.863086 
L 662.957975 -143.202795 
L 663.658533 -142.542505 
L 664.359091 -141.882214 
L 665.059648 -141.221923 
L 665.760206 -140.561632 
L 666.460763 -139.901341 
L 667.161321 -139.24105 
L 667.861878 -138.580759 
L 668.562436 -137.920468 
L 669.262994 -137.260177 
L 669.963551 -136.599886 
L 670.664109 -135.939595 
L 671.364666 -135.279305 
L 672.065224 -134.619014 
L 672.765781 -133.958723 
L 673.466339 -133.298432 
L 674.166897 -132.638141 
L 674.867454 -131.97785 
L 675.568012 -131.317559 
L 676.268569 -130.657268 
L 676.969127 -129.996977 
L 677.669684 -129.336686 
L 678.370242 -128.676395 
L 679.0708 -128.016105 
L 679.771357 -127.355814 
L 680.471915 -126.695523 
L 681.172472 -126.035232 
L 681.87303 -125.374941 
L 682.573588 -124.71465 
L 683.274145 -124.054359 
L 683.974703 -123.394068 
L 684.67526 -122.733777 
L 685.375818 -122.073486 
L 686.076375 -121.413195 
L 686.776933 -120.752905 
L 687.477491 -120.092614 
L 688.178048 -119.432323 
L 688.878606 -118.772032 
L 689.579163 -118.111741 
L 690.279721 -117.45145 
L 690.980278 -116.791159 
L 691.680836 -116.130868 
L 692.381394 -115.470577 
L 693.081951 -114.810286 
L 693.782509 -114.149995 
L 694.483066 -113.489705 
L 695.183624 -112.829414 
L 695.884181 -112.169123 
L 696.584739 -111.508832 
L 697.285297 -110.848541 
L 697.985854 -110.18825 
L 698.686412 -109.527959 
L 699.386969 -108.867668 
L 700.087527 -108.207377 
L 700.788084 -107.547086 
L 701.488642 -106.886795 
L 702.1892 -106.226505 
L 702.889757 -105.566214 
L 703.590315 -104.905923 
L 704.290872 -104.245632 
L 704.99143 -103.585341 
L 705.691988 -102.92505 
L 706.392545 -102.264759 
L 707.093103 -101.604468 
L 707.79366 -100.944177 
L 708.494218 -100.283886 
L 709.194775 -99.623595 
L 709.895333 -98.963305 
L 710.595891 -98.303014 
L 711.296448 -97.642723 
L 711.997006 -96.982432 
L 712.697563 -96.322141 
L 713.398121 -95.66185 
L 714.098678 -95.001559 
L 714.799236 -94.341268 
L 715.499794 -93.680977 
L 716.200351 -93.020686 
L 716.900909 -92.360395 
L 717.601466 -91.700105 
L 718.302024 -91.039814 
L 719.002581 -90.379523 
L 719.703139 -89.719232 
L 720.403697 -89.058941 
L 721.104254 -88.39865 
L 721.804812 -87.738359 
L 722.505369 -87.078068 
L 723.205927 -86.417777 
L 723.906484 -85.757486 
L 724.607042 -85.097195 
L 725.3076 -84.436905 
L 726.008157 -83.776614 
L 726.708715 -83.116323 
L 727.409272 -82.456032 
L 728.10983 -81.795741 
L 728.810388 -81.13545 
L 729.510945 -80.475159 
L 730.211503 -79.814868 
L 730.91206 -79.154577 
L 731.612618 -78.494286 
L 732.313175 -77.833995 
L 733.013733 -77.173705 
L 733.714291 -76.513414 
L 734.414848 -75.853123 
L 735.115406 -75.192832 
L 735.815963 -74.532541 
L 736.516521 -73.87225 
L 737.217078 -73.211959 
L 737.917636 -72.551668 
L 738.618194 -71.891377 
L 739.318751 -71.231086 
L 740.019309 -70.570795 
L 740.719866 -69.910505 
L 741.420424 -69.250214 
L 742.120981 -68.589923 
L 742.821539 -67.929632 
L 743.522097 -67.269341 
L 744.222654 -66.60905 
L 744.923212 -65.948759 
L 745.623769 -65.288468 
L 746.324327 -64.628177 
L 747.024884 -63.967886 
L 747.725442 -63.307595 
L 748.426 -62.647305 
L 749.126557 -61.987014 
L 749.827115 -61.326723 
L 750.527672 -60.666432 
L 751.22823 -60.006141 
L 751.928788 -59.34585 
L 752.629345 -58.685559 
L 753.329903 -58.025268 
L 754.03046 -57.364977 
L 754.731018 -56.704686 
L 755.431575 -56.044395 
L 756.132133 -55.384105 
L 756.832691 -54.723814 
L 757.533248 -54.063523 
z
" style="stroke: #ff0000; stroke-opacity: 0.5"/>
    </defs>
    <g clip-path="url(#p80dc5d70aa)">
     <use xlink:href="#meddaa1a9ed" x="0" y="423.034375" style="fill: #ff0000; fill-opacity: 0.5; stroke: #ff0000; stroke-opacity: 0.5"/>
    </g>
   </g>
   <g id="matplotlib.axis_3">
    <g id="xtick_1">
     <g id="line2d_2">
      <path d="M 470.304642 385.478125 
L 470.304642 22.318125 
" clip-path="url(#p80dc5d70aa)" style="fill: none; stroke: #b0b0b0; stroke-width: 0.8; stroke-linecap: square"/>
     </g>
     <g id="line2d_3">
      <defs>
       <path id="m89c12502d5" d="M 0 0 
L 0 3.5 
" style="stroke: #000000; stroke-width: 0.8"/>
      </defs>
      <g>
       <use xlink:href="#m89c12502d5" x="470.304642" y="385.478125" style="stroke: #000000; stroke-width: 0.8"/>
      </g>
     </g>
     <g id="text_4">
      <!-- −0.002 -->
      <g transform="translate(451.800736 400.076562) scale(0.1 -0.1)">
       <defs>
        <path id="DejaVuSans-2212" d="M 678 2272 
L 4684 2272 
L 4684 1741 
L 678 1741 
L 678 2272 
z
" transform="scale(0.015625)"/>
        <path id="DejaVuSans-30" d="M 2034 4250 
Q 1547 4250 1301 3770 
Q 1056 3291 1056 2328 
Q 1056 1369 1301 889 
Q 1547 409 2034 409 
Q 2525 409 2770 889 
Q 3016 1369 3016 2328 
Q 3016 3291 2770 3770 
Q 2525 4250 2034 4250 
z
M 2034 4750 
Q 2819 4750 3233 4129 
Q 3647 3509 3647 2328 
Q 3647 1150 3233 529 
Q 2819 -91 2034 -91 
Q 1250 -91 836 529 
Q 422 1150 422 2328 
Q 422 3509 836 4129 
Q 1250 4750 2034 4750 
z
" transform="scale(0.015625)"/>
        <path id="DejaVuSans-2e" d="M 684 794 
L 1344 794 
L 1344 0 
L 684 0 
L 684 794 
z
" transform="scale(0.015625)"/>
        <path id="DejaVuSans-32" d="M 1228 531 
L 3431 531 
L 3431 0 
L 469 0 
L 469 531 
Q 828 903 1448 1529 
Q 2069 2156 2228 2338 
Q 2531 2678 2651 2914 
Q 2772 3150 2772 3378 
Q 2772 3750 2511 3984 
Q 2250 4219 1831 4219 
Q 1534 4219 1204 4116 
Q 875 4013 500 3803 
L 500 4441 
Q 881 4594 1212 4672 
Q 1544 4750 1819 4750 
Q 2544 4750 2975 4387 
Q 3406 4025 3406 3419 
Q 3406 3131 3298 2873 
Q 3191 2616 2906 2266 
Q 2828 2175 2409 1742 
Q 1991 1309 1228 531 
z
" transform="scale(0.015625)"/>
       </defs>
       <use xlink:href="#DejaVuSans-2212"/>
       <use xlink:href="#DejaVuSans-30" x="83.789062"/>
       <use xlink:href="#DejaVuSans-2e" x="147.412109"/>
       <use xlink:href="#DejaVuSans-30" x="179.199219"/>
       <use xlink:href="#DejaVuSans-30" x="242.822266"/>
       <use xlink:href="#DejaVuSans-32" x="306.445312"/>
      </g>
     </g>
    </g>
    <g id="xtick_2">
     <g id="line2d_4">
      <path d="M 554.371551 385.478125 
L 554.371551 22.318125 
" clip-path="url(#p80dc5d70aa)" style="fill: none; stroke: #b0b0b0; stroke-width: 0.8; stroke-linecap: square"/>
     </g>
     <g id="line2d_5">
      <g>
       <use xlink:href="#m89c12502d5" x="554.371551" y="385.478125" style="stroke: #000000; stroke-width: 0.8"/>
      </g>
     </g>
     <g id="text_5">
      <!-- 0.000 -->
      <g transform="translate(540.057489 400.076562) scale(0.1 -0.1)">
       <use xlink:href="#DejaVuSans-30"/>
       <use xlink:href="#DejaVuSans-2e" x="63.623047"/>
       <use xlink:href="#DejaVuSans-30" x="95.410156"/>
       <use xlink:href="#DejaVuSans-30" x="159.033203"/>
       <use xlink:href="#DejaVuSans-30" x="222.65625"/>
      </g>
     </g>
    </g>
    <g id="xtick_3">
     <g id="line2d_6">
      <path d="M 638.43846 385.478125 
L 638.43846 22.318125 
" clip-path="url(#p80dc5d70aa)" style="fill: none; stroke: #b0b0b0; stroke-width: 0.8; stroke-linecap: square"/>
     </g>
     <g id="line2d_7">
      <g>
       <use xlink:href="#m89c12502d5" x="638.43846" y="385.478125" style="stroke: #000000; stroke-width: 0.8"/>
      </g>
     </g>
     <g id="text_6">
      <!-- 0.002 -->
      <g transform="translate(624.124398 400.076562) scale(0.1 -0.1)">
       <use xlink:href="#DejaVuSans-30"/>
       <use xlink:href="#DejaVuSans-2e" x="63.623047"/>
       <use xlink:href="#DejaVuSans-30" x="95.410156"/>
       <use xlink:href="#DejaVuSans-30" x="159.033203"/>
       <use xlink:href="#DejaVuSans-32" x="222.65625"/>
      </g>
     </g>
    </g>
    <g id="xtick_4">
     <g id="line2d_8">
      <path d="M 722.505369 385.478125 
L 722.505369 22.318125 
" clip-path="url(#p80dc5d70aa)" style="fill: none; stroke: #b0b0b0; stroke-width: 0.8; stroke-linecap: square"/>
     </g>
     <g id="line2d_9">
      <g>
       <use xlink:href="#m89c12502d5" x="722.505369" y="385.478125" style="stroke: #000000; stroke-width: 0.8"/>
      </g>
     </g>
     <g id="text_7">
      <!-- 0.004 -->
      <g transform="translate(708.191307 400.076562) scale(0.1 -0.1)">
       <defs>
        <path id="DejaVuSans-34" d="M 2419 4116 
L 825 1625 
L 2419 1625 
L 2419 4116 
z
M 2253 4666 
L 3047 4666 
L 3047 1625 
L 3713 1625 
L 3713 1100 
L 3047 1100 
L 3047 0 
L 2419 0 
L 2419 1100 
L 313 1100 
L 313 1709 
L 2253 4666 
z
" transform="scale(0.015625)"/>
       </defs>
       <use xlink:href="#DejaVuSans-30"/>
       <use xlink:href="#DejaVuSans-2e" x="63.623047"/>
       <use xlink:href="#DejaVuSans-30" x="95.410156"/>
       <use xlink:href="#DejaVuSans-30" x="159.033203"/>
       <use xlink:href="#DejaVuSans-34" x="222.65625"/>
      </g>
     </g>
    </g>
    <g id="text_8">
     <!-- Strain -->
     <g transform="translate(567.582135 413.754687) scale(0.1 -0.1)">
      <use xlink:href="#DejaVuSans-53"/>
      <use xlink:href="#DejaVuSans-74" x="63.476562"/>
      <use xlink:href="#DejaVuSans-72" x="102.685547"/>
      <use xlink:href="#DejaVuSans-61" x="143.798828"/>
      <use xlink:href="#DejaVuSans-69" x="205.078125"/>
      <use xlink:href="#DejaVuSans-6e" x="232.861328"/>
     </g>
    </g>
   </g>
   <g id="matplotlib.axis_4">
    <g id="ytick_1">
     <g id="line2d_10">
      <path d="M 389.740521 375.573761 
L 775.047188 375.573761 
" clip-path="url(#p80dc5d70aa)" style="fill: none; stroke: #b0b0b0; stroke-width: 0.8; stroke-linecap: square"/>
     </g>
     <g id="line2d_11">
      <defs>
       <path id="m0fb5eb6b06" d="M 0 0 
L -3.5 0 
" style="stroke: #000000; stroke-width: 0.8"/>
      </defs>
      <g>
       <use xlink:href="#m0fb5eb6b06" x="389.740521" y="375.573761" style="stroke: #000000; stroke-width: 0.8"/>
      </g>
     </g>
     <g id="text_9">
      <!-- −300 -->
      <g transform="translate(355.273333 379.37298) scale(0.1 -0.1)">
       <defs>
        <path id="DejaVuSans-33" d="M 2597 2516 
Q 3050 2419 3304 2112 
Q 3559 1806 3559 1356 
Q 3559 666 3084 287 
Q 2609 -91 1734 -91 
Q 1441 -91 1130 -33 
Q 819 25 488 141 
L 488 750 
Q 750 597 1062 519 
Q 1375 441 1716 441 
Q 2309 441 2620 675 
Q 2931 909 2931 1356 
Q 2931 1769 2642 2001 
Q 2353 2234 1838 2234 
L 1294 2234 
L 1294 2753 
L 1863 2753 
Q 2328 2753 2575 2939 
Q 2822 3125 2822 3475 
Q 2822 3834 2567 4026 
Q 2313 4219 1838 4219 
Q 1578 4219 1281 4162 
Q 984 4106 628 3988 
L 628 4550 
Q 988 4650 1302 4700 
Q 1616 4750 1894 4750 
Q 2613 4750 3031 4423 
Q 3450 4097 3450 3541 
Q 3450 3153 3228 2886 
Q 3006 2619 2597 2516 
z
" transform="scale(0.015625)"/>
       </defs>
       <use xlink:href="#DejaVuSans-2212"/>
       <use xlink:href="#DejaVuSans-33" x="83.789062"/>
       <use xlink:href="#DejaVuSans-30" x="147.412109"/>
       <use xlink:href="#DejaVuSans-30" x="211.035156"/>
      </g>
     </g>
    </g>
    <g id="ytick_2">
     <g id="line2d_12">
      <path d="M 389.740521 309.54467 
L 775.047188 309.54467 
" clip-path="url(#p80dc5d70aa)" style="fill: none; stroke: #b0b0b0; stroke-width: 0.8; stroke-linecap: square"/>
     </g>
     <g id="line2d_13">
      <g>
       <use xlink:href="#m0fb5eb6b06" x="389.740521" y="309.54467" style="stroke: #000000; stroke-width: 0.8"/>
      </g>
     </g>
     <g id="text_10">
      <!-- −200 -->
      <g transform="translate(355.273333 313.343889) scale(0.1 -0.1)">
       <use xlink:href="#DejaVuSans-2212"/>
       <use xlink:href="#DejaVuSans-32" x="83.789062"/>
       <use xlink:href="#DejaVuSans-30" x="147.412109"/>
       <use xlink:href="#DejaVuSans-30" x="211.035156"/>
      </g>
     </g>
    </g>
    <g id="ytick_3">
     <g id="line2d_14">
      <path d="M 389.740521 243.51558 
L 775.047188 243.51558 
" clip-path="url(#p80dc5d70aa)" style="fill: none; stroke: #b0b0b0; stroke-width: 0.8; stroke-linecap: square"/>
     </g>
     <g id="line2d_15">
      <g>
       <use xlink:href="#m0fb5eb6b06" x="389.740521" y="243.51558" style="stroke: #000000; stroke-width: 0.8"/>
      </g>
     </g>
     <g id="text_11">
      <!-- −100 -->
      <g transform="translate(355.273333 247.314798) scale(0.1 -0.1)">
       <defs>
        <path id="DejaVuSans-31" d="M 794 531 
L 1825 531 
L 1825 4091 
L 703 3866 
L 703 4441 
L 1819 4666 
L 2450 4666 
L 2450 531 
L 3481 531 
L 3481 0 
L 794 0 
L 794 531 
z
" transform="scale(0.015625)"/>
       </defs>
       <use xlink:href="#DejaVuSans-2212"/>
       <use xlink:href="#DejaVuSans-31" x="83.789062"/>
       <use xlink:href="#DejaVuSans-30" x="147.412109"/>
       <use xlink:href="#DejaVuSans-30" x="211.035156"/>
      </g>
     </g>
    </g>
    <g id="ytick_4">
     <g id="line2d_16">
      <path d="M 389.740521 177.486489 
L 775.047188 177.486489 
" clip-path="url(#p80dc5d70aa)" style="fill: none; stroke: #b0b0b0; stroke-width: 0.8; stroke-linecap: square"/>
     </g>
     <g id="line2d_17">
      <g>
       <use xlink:href="#m0fb5eb6b06" x="389.740521" y="177.486489" style="stroke: #000000; stroke-width: 0.8"/>
      </g>
     </g>
     <g id="text_12">
      <!-- 0 -->
      <g transform="translate(376.378021 181.285707) scale(0.1 -0.1)">
       <use xlink:href="#DejaVuSans-30"/>
      </g>
     </g>
    </g>
    <g id="ytick_5">
     <g id="line2d_18">
      <path d="M 389.740521 111.457398 
L 775.047188 111.457398 
" clip-path="url(#p80dc5d70aa)" style="fill: none; stroke: #b0b0b0; stroke-width: 0.8; stroke-linecap: square"/>
     </g>
     <g id="line2d_19">
      <g>
       <use xlink:href="#m0fb5eb6b06" x="389.740521" y="111.457398" style="stroke: #000000; stroke-width: 0.8"/>
      </g>
     </g>
     <g id="text_13">
      <!-- 100 -->
      <g transform="translate(363.653021 115.256616) scale(0.1 -0.1)">
       <use xlink:href="#DejaVuSans-31"/>
       <use xlink:href="#DejaVuSans-30" x="63.623047"/>
       <use xlink:href="#DejaVuSans-30" x="127.246094"/>
      </g>
     </g>
    </g>
    <g id="ytick_6">
     <g id="line2d_20">
      <path d="M 389.740521 45.428307 
L 775.047188 45.428307 
" clip-path="url(#p80dc5d70aa)" style="fill: none; stroke: #b0b0b0; stroke-width: 0.8; stroke-linecap: square"/>
     </g>
     <g id="line2d_21">
      <g>
       <use xlink:href="#m0fb5eb6b06" x="389.740521" y="45.428307" style="stroke: #000000; stroke-width: 0.8"/>
      </g>
     </g>
     <g id="text_14">
      <!-- 200 -->
      <g transform="translate(363.653021 49.227526) scale(0.1 -0.1)">
       <use xlink:href="#DejaVuSans-32"/>
       <use xlink:href="#DejaVuSans-30" x="63.623047"/>
       <use xlink:href="#DejaVuSans-30" x="127.246094"/>
      </g>
     </g>
    </g>
    <g id="text_15">
     <!-- Depth (mm) -->
     <g transform="translate(349.193646 234.359062) rotate(-90) scale(0.1 -0.1)">
      <defs>
       <path id="DejaVuSans-44" d="M 1259 4147 
L 1259 519 
L 2022 519 
Q 2988 519 3436 956 
Q 3884 1394 3884 2338 
Q 3884 3275 3436 3711 
Q 2988 4147 2022 4147 
L 1259 4147 
z
M 628 4666 
L 1925 4666 
Q 3281 4666 3915 4102 
Q 4550 3538 4550 2338 
Q 4550 1131 3912 565 
Q 3275 0 1925 0 
L 628 0 
L 628 4666 
z
" transform="scale(0.015625)"/>
       <path id="DejaVuSans-70" d="M 1159 525 
L 1159 -1331 
L 581 -1331 
L 581 3500 
L 1159 3500 
L 1159 2969 
Q 1341 3281 1617 3432 
Q 1894 3584 2278 3584 
Q 2916 3584 3314 3078 
Q 3713 2572 3713 1747 
Q 3713 922 3314 415 
Q 2916 -91 2278 -91 
Q 1894 -91 1617 61 
Q 1341 213 1159 525 
z
M 3116 1747 
Q 3116 2381 2855 2742 
Q 2594 3103 2138 3103 
Q 1681 3103 1420 2742 
Q 1159 2381 1159 1747 
Q 1159 1113 1420 752 
Q 1681 391 2138 391 
Q 2594 391 2855 752 
Q 3116 1113 3116 1747 
z
" transform="scale(0.015625)"/>
       <path id="DejaVuSans-68" d="M 3513 2113 
L 3513 0 
L 2938 0 
L 2938 2094 
Q 2938 2591 2744 2837 
Q 2550 3084 2163 3084 
Q 1697 3084 1428 2787 
Q 1159 2491 1159 1978 
L 1159 0 
L 581 0 
L 581 4863 
L 1159 4863 
L 1159 2956 
Q 1366 3272 1645 3428 
Q 1925 3584 2291 3584 
Q 2894 3584 3203 3211 
Q 3513 2838 3513 2113 
z
" transform="scale(0.015625)"/>
       <path id="DejaVuSans-28" d="M 1984 4856 
Q 1566 4138 1362 3434 
Q 1159 2731 1159 2009 
Q 1159 1288 1364 580 
Q 1569 -128 1984 -844 
L 1484 -844 
Q 1016 -109 783 600 
Q 550 1309 550 2009 
Q 550 2706 781 3412 
Q 1013 4119 1484 4856 
L 1984 4856 
z
" transform="scale(0.015625)"/>
       <path id="DejaVuSans-29" d="M 513 4856 
L 1013 4856 
Q 1481 4119 1714 3412 
Q 1947 2706 1947 2009 
Q 1947 1309 1714 600 
Q 1481 -109 1013 -844 
L 513 -844 
Q 928 -128 1133 580 
Q 1338 1288 1338 2009 
Q 1338 2731 1133 3434 
Q 928 4138 513 4856 
z
" transform="scale(0.015625)"/>
      </defs>
      <use xlink:href="#DejaVuSans-44"/>
      <use xlink:href="#DejaVuSans-65" x="77.001953"/>
      <use xlink:href="#DejaVuSans-70" x="138.525391"/>
      <use xlink:href="#DejaVuSans-74" x="202.001953"/>
      <use xlink:href="#DejaVuSans-68" x="241.210938"/>
      <use xlink:href="#DejaVuSans-20" x="304.589844"/>
      <use xlink:href="#DejaVuSans-28" x="336.376953"/>
      <use xlink:href="#DejaVuSans-6d" x="375.390625"/>
      <use xlink:href="#DejaVuSans-6d" x="472.802734"/>
      <use xlink:href="#DejaVuSans-29" x="570.214844"/>
     </g>
    </g>
   </g>
   <g id="line2d_22">
    <path d="M 757.533248 368.970852 
L 407.25446 38.825398 
L 407.25446 38.825398 
" clip-path="url(#p80dc5d70aa)" style="fill: none; stroke: #008000; stroke-width: 1.5; stroke-linecap: square"/>
   </g>
   <g id="line2d_23">
    <path d="M 389.740521 177.486489 
L 775.047188 177.486489 
" clip-path="url(#p80dc5d70aa)" style="fill: none; stroke-dasharray: 2.96,1.28; stroke-dashoffset: 0; stroke: #000000; stroke-width: 0.8"/>
   </g>
   <g id="line2d_24">
    <path d="M 554.371551 385.478125 
L 554.371551 22.318125 
" clip-path="url(#p80dc5d70aa)" style="fill: none; stroke-dasharray: 2.96,1.28; stroke-dashoffset: 0; stroke: #000000; stroke-width: 0.8"/>
   </g>
   <g id="patch_4">
    <path d="M 389.740521 385.478125 
L 389.740521 22.318125 
" style="fill: none; stroke: #000000; stroke-width: 0.8; stroke-linejoin: miter; stroke-linecap: square"/>
   </g>
   <g id="patch_5">
    <path d="M 775.047188 385.478125 
L 775.047188 22.318125 
" style="fill: none; stroke: #000000; stroke-width: 0.8; stroke-linejoin: miter; stroke-linecap: square"/>
   </g>
   <g id="patch_6">
    <path d="M 389.740521 385.478125 
L 775.047188 385.478125 
" style="fill: none; stroke: #000000; stroke-width: 0.8; stroke-linejoin: miter; stroke-linecap: square"/>
   </g>
   <g id="patch_7">
    <path d="M 389.740521 22.318125 
L 775.047188 22.318125 
" style="fill: none; stroke: #000000; stroke-width: 0.8; stroke-linejoin: miter; stroke-linecap: square"/>
   </g>
   <g id="text_16">
    <!-- Strain Distribution Along the Depth of Reinforced Concrete Beam -->
    <g transform="translate(387.067604 16.318125) scale(0.12 -0.12)">
     <defs>
      <path id="DejaVuSans-75" d="M 544 1381 
L 544 3500 
L 1119 3500 
L 1119 1403 
Q 1119 906 1312 657 
Q 1506 409 1894 409 
Q 2359 409 2629 706 
Q 2900 1003 2900 1516 
L 2900 3500 
L 3475 3500 
L 3475 0 
L 2900 0 
L 2900 538 
Q 2691 219 2414 64 
Q 2138 -91 1772 -91 
Q 1169 -91 856 284 
Q 544 659 544 1381 
z
M 1991 3584 
L 1991 3584 
z
" transform="scale(0.015625)"/>
      <path id="DejaVuSans-41" d="M 2188 4044 
L 1331 1722 
L 3047 1722 
L 2188 4044 
z
M 1831 4666 
L 2547 4666 
L 4325 0 
L 3669 0 
L 3244 1197 
L 1141 1197 
L 716 0 
L 50 0 
L 1831 4666 
z
" transform="scale(0.015625)"/>
      <path id="DejaVuSans-6c" d="M 603 4863 
L 1178 4863 
L 1178 0 
L 603 0 
L 603 4863 
z
" transform="scale(0.015625)"/>
      <path id="DejaVuSans-67" d="M 2906 1791 
Q 2906 2416 2648 2759 
Q 2391 3103 1925 3103 
Q 1463 3103 1205 2759 
Q 947 2416 947 1791 
Q 947 1169 1205 825 
Q 1463 481 1925 481 
Q 2391 481 2648 825 
Q 2906 1169 2906 1791 
z
M 3481 434 
Q 3481 -459 3084 -895 
Q 2688 -1331 1869 -1331 
Q 1566 -1331 1297 -1286 
Q 1028 -1241 775 -1147 
L 775 -588 
Q 1028 -725 1275 -790 
Q 1522 -856 1778 -856 
Q 2344 -856 2625 -561 
Q 2906 -266 2906 331 
L 2906 616 
Q 2728 306 2450 153 
Q 2172 0 1784 0 
Q 1141 0 747 490 
Q 353 981 353 1791 
Q 353 2603 747 3093 
Q 1141 3584 1784 3584 
Q 2172 3584 2450 3431 
Q 2728 3278 2906 2969 
L 2906 3500 
L 3481 3500 
L 3481 434 
z
" transform="scale(0.015625)"/>
     </defs>
     <use xlink:href="#DejaVuSans-53"/>
     <use xlink:href="#DejaVuSans-74" x="63.476562"/>
     <use xlink:href="#DejaVuSans-72" x="102.685547"/>
     <use xlink:href="#DejaVuSans-61" x="143.798828"/>
     <use xlink:href="#DejaVuSans-69" x="205.078125"/>
     <use xlink:href="#DejaVuSans-6e" x="232.861328"/>
     <use xlink:href="#DejaVuSans-20" x="296.240234"/>
     <use xlink:href="#DejaVuSans-44" x="328.027344"/>
     <use xlink:href="#DejaVuSans-69" x="405.029297"/>
     <use xlink:href="#DejaVuSans-73" x="432.8125"/>
     <use xlink:href="#DejaVuSans-74" x="484.912109"/>
     <use xlink:href="#DejaVuSans-72" x="524.121094"/>
     <use xlink:href="#DejaVuSans-69" x="565.234375"/>
     <use xlink:href="#DejaVuSans-62" x="593.017578"/>
     <use xlink:href="#DejaVuSans-75" x="656.494141"/>
     <use xlink:href="#DejaVuSans-74" x="719.873047"/>
     <use xlink:href="#DejaVuSans-69" x="759.082031"/>
     <use xlink:href="#DejaVuSans-6f" x="786.865234"/>
     <use xlink:href="#DejaVuSans-6e" x="848.046875"/>
     <use xlink:href="#DejaVuSans-20" x="911.425781"/>
     <use xlink:href="#DejaVuSans-41" x="943.212891"/>
     <use xlink:href="#DejaVuSans-6c" x="1011.621094"/>
     <use xlink:href="#DejaVuSans-6f" x="1039.404297"/>
     <use xlink:href="#DejaVuSans-6e" x="1100.585938"/>
     <use xlink:href="#DejaVuSans-67" x="1163.964844"/>
     <use xlink:href="#DejaVuSans-20" x="1227.441406"/>
     <use xlink:href="#DejaVuSans-74" x="1259.228516"/>
     <use xlink:href="#DejaVuSans-68" x="1298.4375"/>
     <use xlink:href="#DejaVuSans-65" x="1361.816406"/>
     <use xlink:href="#DejaVuSans-20" x="1423.339844"/>
     <use xlink:href="#DejaVuSans-44" x="1455.126953"/>
     <use xlink:href="#DejaVuSans-65" x="1532.128906"/>
     <use xlink:href="#DejaVuSans-70" x="1593.652344"/>
     <use xlink:href="#DejaVuSans-74" x="1657.128906"/>
     <use xlink:href="#DejaVuSans-68" x="1696.337891"/>
     <use xlink:href="#DejaVuSans-20" x="1759.716797"/>
     <use xlink:href="#DejaVuSans-6f" x="1791.503906"/>
     <use xlink:href="#DejaVuSans-66" x="1852.685547"/>
     <use xlink:href="#DejaVuSans-20" x="1887.890625"/>
     <use xlink:href="#DejaVuSans-52" x="1919.677734"/>
     <use xlink:href="#DejaVuSans-65" x="1984.660156"/>
     <use xlink:href="#DejaVuSans-69" x="2046.183594"/>
     <use xlink:href="#DejaVuSans-6e" x="2073.966797"/>
     <use xlink:href="#DejaVuSans-66" x="2137.345703"/>
     <use xlink:href="#DejaVuSans-6f" x="2172.550781"/>
     <use xlink:href="#DejaVuSans-72" x="2233.732422"/>
     <use xlink:href="#DejaVuSans-63" x="2272.595703"/>
     <use xlink:href="#DejaVuSans-65" x="2327.576172"/>
     <use xlink:href="#DejaVuSans-64" x="2389.099609"/>
     <use xlink:href="#DejaVuSans-20" x="2452.576172"/>
     <use xlink:href="#DejaVuSans-43" x="2484.363281"/>
     <use xlink:href="#DejaVuSans-6f" x="2554.1875"/>
     <use xlink:href="#DejaVuSans-6e" x="2615.369141"/>
     <use xlink:href="#DejaVuSans-63" x="2678.748047"/>
     <use xlink:href="#DejaVuSans-72" x="2733.728516"/>
     <use xlink:href="#DejaVuSans-65" x="2772.591797"/>
     <use xlink:href="#DejaVuSans-74" x="2834.115234"/>
     <use xlink:href="#DejaVuSans-65" x="2873.324219"/>
     <use xlink:href="#DejaVuSans-20" x="2934.847656"/>
     <use xlink:href="#DejaVuSans-42" x="2966.634766"/>
     <use xlink:href="#DejaVuSans-65" x="3035.238281"/>
     <use xlink:href="#DejaVuSans-61" x="3096.761719"/>
     <use xlink:href="#DejaVuSans-6d" x="3158.041016"/>
    </g>
   </g>
  </g>
  <g id="axes_3">
   <g id="patch_8">
    <path d="M 834.287188 385.478125 
L 1219.593854 385.478125 
L 1219.593854 22.318125 
L 834.287188 22.318125 
z
" style="fill: #ffffff"/>
   </g>
   <g id="PolyCollection_4">
    <defs>
     <path id="m5660107ac6" d="M 862.390832 -246.920768 
L 862.390832 -246.920768 
L 862.390832 -247.574522 
L 862.390832 -248.228275 
L 862.390832 -248.882029 
L 862.390832 -249.535782 
L 862.390832 -250.189535 
L 862.390832 -250.843289 
L 862.390832 -251.497042 
L 862.390832 -252.150795 
L 862.390832 -252.804549 
L 862.390832 -253.458302 
L 862.390832 -254.112056 
L 862.390832 -254.765809 
L 862.390832 -255.419562 
L 862.390832 -256.073316 
L 862.390832 -256.727069 
L 862.390832 -257.380822 
L 862.390832 -258.034576 
L 862.390832 -258.688329 
L 862.390832 -259.342083 
L 862.390832 -259.995836 
L 862.390832 -260.649589 
L 862.390832 -261.303343 
L 862.390832 -261.957096 
L 862.390832 -262.610849 
L 862.390832 -263.264603 
L 862.390832 -263.918356 
L 862.390832 -264.57211 
L 862.390832 -265.225863 
L 862.390832 -265.879616 
L 862.390832 -266.53337 
L 862.390832 -267.187123 
L 862.390832 -267.840876 
L 862.390832 -268.49463 
L 862.390832 -269.148383 
L 862.390832 -269.802137 
L 862.390832 -270.45589 
L 862.390832 -271.109643 
L 862.390832 -271.763397 
L 862.390832 -272.41715 
L 862.390832 -273.070903 
L 862.390832 -273.724657 
L 862.390832 -274.37841 
L 862.390832 -275.032164 
L 862.390832 -275.685917 
L 862.390832 -276.33967 
L 862.390832 -276.993424 
L 862.390832 -277.647177 
L 862.390832 -278.30093 
L 862.390832 -278.954684 
L 862.390832 -279.608437 
L 862.390832 -280.262191 
L 862.390832 -280.915944 
L 862.390832 -281.569697 
L 862.390832 -282.223451 
L 862.390832 -282.877204 
L 862.390832 -283.530957 
L 862.390832 -284.184711 
L 862.390832 -284.838464 
L 862.390832 -285.492218 
L 862.390832 -286.145971 
L 862.390832 -286.799724 
L 862.390832 -287.453478 
L 862.390832 -288.107231 
L 862.390832 -288.760984 
L 862.390832 -289.414738 
L 862.390832 -290.068491 
L 862.390832 -290.722245 
L 862.390832 -291.375998 
L 862.390832 -292.029751 
L 862.390832 -292.683505 
L 862.390832 -293.337258 
L 862.390832 -293.991011 
L 862.390832 -294.644765 
L 862.390832 -295.298518 
L 862.390832 -295.952272 
L 862.390832 -296.606025 
L 862.390832 -297.259778 
L 862.390832 -297.913532 
L 862.390832 -298.567285 
L 862.390832 -299.221038 
L 862.390832 -299.874792 
L 862.390832 -300.528545 
L 862.390832 -301.182299 
L 862.390832 -301.836052 
L 862.390832 -302.489805 
L 862.390832 -303.143559 
L 862.390832 -303.797312 
L 862.390832 -304.451065 
L 862.390832 -305.104819 
L 862.390832 -305.758572 
L 862.390832 -306.412326 
L 862.390832 -307.066079 
L 862.390832 -307.719832 
L 862.390832 -308.373586 
L 862.390832 -309.027339 
L 862.390832 -309.681092 
L 862.390832 -310.334846 
L 862.390832 -310.988599 
L 862.390832 -311.642353 
L 862.390832 -312.296106 
L 862.390832 -312.949859 
L 862.390832 -313.603613 
L 862.390832 -314.257366 
L 862.390832 -314.911119 
L 862.390832 -315.564873 
L 862.390832 -316.218626 
L 862.390832 -316.87238 
L 862.390832 -317.526133 
L 862.390832 -318.179886 
L 862.390832 -318.83364 
L 862.390832 -319.487393 
L 862.390832 -320.141146 
L 862.390832 -320.7949 
L 862.390832 -321.448653 
L 862.390832 -322.102407 
L 862.390832 -322.75616 
L 862.390832 -323.409913 
L 862.390832 -324.063667 
L 862.390832 -324.71742 
L 862.390832 -325.371173 
L 862.390832 -326.024927 
L 862.390832 -326.67868 
L 862.390832 -327.332434 
L 862.390832 -327.986187 
L 862.390832 -328.63994 
L 862.390832 -329.293694 
L 862.390832 -329.947447 
L 862.390832 -330.6012 
L 862.390832 -331.254954 
L 862.390832 -331.908707 
L 862.390832 -332.562461 
L 862.390832 -333.216214 
L 862.390832 -333.869967 
L 862.390832 -334.523721 
L 862.390832 -335.177474 
L 862.390832 -335.831227 
L 862.390832 -336.484981 
L 862.390832 -337.138734 
L 862.390832 -337.792488 
L 862.390832 -338.446241 
L 862.390832 -339.099994 
L 862.390832 -339.753748 
L 862.390832 -340.407501 
L 862.390832 -341.061255 
L 862.390832 -341.715008 
L 862.390832 -342.368761 
L 862.390832 -343.022515 
L 862.390832 -343.676268 
L 862.390832 -344.330021 
L 862.390832 -344.983775 
L 862.390832 -345.637528 
L 862.390832 -346.291282 
L 862.390832 -346.945035 
L 862.390832 -347.598788 
L 862.390832 -348.252542 
L 862.390832 -348.906295 
L 862.390832 -349.560048 
L 862.390832 -350.213802 
L 862.390832 -350.867555 
L 862.390832 -351.521309 
L 862.390832 -352.175062 
L 862.390832 -352.828815 
L 862.390832 -353.482569 
L 862.390832 -354.136322 
L 862.390832 -354.790075 
L 862.390832 -355.443829 
L 862.390832 -356.097582 
L 862.390832 -356.751336 
L 862.390832 -357.405089 
L 862.390832 -358.058842 
L 862.390832 -358.712596 
L 862.390832 -359.366349 
L 862.390832 -360.020102 
L 862.390832 -360.673856 
L 862.390832 -361.327609 
L 862.390832 -361.981363 
L 862.390832 -362.635116 
L 862.390832 -363.288869 
L 862.390832 -363.942623 
L 862.390832 -364.596376 
L 862.390832 -365.250129 
L 862.390832 -365.903883 
L 862.390832 -366.557636 
L 862.390832 -367.21139 
L 862.390832 -367.865143 
L 862.390832 -368.518896 
L 862.390832 -369.17265 
L 862.390832 -369.826403 
L 862.390832 -370.480156 
L 862.390832 -371.13391 
L 862.390832 -371.787663 
L 862.390832 -372.441417 
L 862.390832 -373.09517 
L 862.390832 -373.748923 
L 862.390832 -374.402677 
L 862.390832 -375.05643 
L 862.390832 -375.710183 
L 862.390832 -376.363937 
L 862.390832 -377.01769 
L 862.390832 -377.671444 
L 862.390832 -378.325197 
L 862.390832 -378.97895 
L 862.390832 -379.632704 
L 862.390832 -380.286457 
L 862.390832 -380.94021 
L 862.390832 -381.593964 
L 862.390832 -382.247717 
L 862.390832 -382.901471 
L 862.390832 -383.555224 
L 862.390832 -384.208977 
L 851.801127 -384.208977 
L 851.801127 -384.208977 
L 851.801127 -383.555224 
L 851.801127 -382.901471 
L 851.801127 -382.247717 
L 851.801127 -381.593964 
L 851.801127 -380.94021 
L 851.801127 -380.286457 
L 851.801127 -379.632704 
L 851.801127 -378.97895 
L 851.801127 -378.325197 
L 851.801127 -377.671444 
L 851.801127 -377.01769 
L 851.801127 -376.363937 
L 851.801127 -375.710183 
L 851.801127 -375.05643 
L 851.801127 -374.402677 
L 851.801127 -373.748923 
L 851.801127 -373.09517 
L 851.801127 -372.441417 
L 851.801127 -371.787663 
L 851.801127 -371.13391 
L 851.801127 -370.480156 
L 851.801127 -369.826403 
L 851.801127 -369.17265 
L 851.801127 -368.518896 
L 851.801127 -367.865143 
L 851.801127 -367.21139 
L 851.801127 -366.557636 
L 851.801127 -365.903883 
L 851.801127 -365.250129 
L 851.801127 -364.596376 
L 851.801127 -363.942623 
L 851.801127 -363.288869 
L 851.801127 -362.635116 
L 851.801127 -361.981363 
L 851.801127 -361.327609 
L 851.801127 -360.673856 
L 851.801127 -360.020102 
L 851.801127 -359.366349 
L 851.801127 -358.712596 
L 851.801127 -358.058842 
L 851.801127 -357.405089 
L 851.801127 -356.751336 
L 851.801127 -356.097582 
L 851.801127 -355.443829 
L 851.801127 -354.790075 
L 851.801127 -354.136322 
L 851.801127 -353.482569 
L 851.801127 -352.828815 
L 851.801127 -352.175062 
L 851.801127 -351.521309 
L 851.801127 -350.867555 
L 851.801127 -350.213802 
L 851.801127 -349.560048 
L 851.801127 -348.906295 
L 851.801127 -348.252542 
L 851.801127 -347.598788 
L 851.801127 -346.945035 
L 851.801127 -346.291282 
L 851.801127 -345.637528 
L 851.801127 -344.983775 
L 851.801127 -344.330021 
L 851.801127 -343.676268 
L 851.801127 -343.022515 
L 851.801127 -342.368761 
L 851.801127 -341.715008 
L 851.801127 -341.061255 
L 851.801127 -340.407501 
L 851.801127 -339.753748 
L 851.801127 -339.099994 
L 851.801127 -338.446241 
L 851.801127 -337.792488 
L 851.801127 -337.138734 
L 851.801127 -336.484981 
L 851.801127 -335.831227 
L 851.801127 -335.177474 
L 851.801127 -334.523721 
L 851.801127 -333.869967 
L 851.801127 -333.216214 
L 851.801127 -332.562461 
L 851.801127 -331.908707 
L 851.801127 -331.254954 
L 851.801127 -330.6012 
L 851.801127 -329.947447 
L 851.801127 -329.293694 
L 851.801127 -328.63994 
L 851.801127 -327.986187 
L 851.801127 -327.332434 
L 851.801127 -326.67868 
L 851.801127 -326.024927 
L 851.801127 -325.371173 
L 851.801861 -324.71742 
L 851.804066 -324.063667 
L 851.807741 -323.409913 
L 851.812888 -322.75616 
L 851.819505 -322.102407 
L 851.827593 -321.448653 
L 851.837152 -320.7949 
L 851.848182 -320.141146 
L 851.860682 -319.487393 
L 851.874654 -318.83364 
L 851.890096 -318.179886 
L 851.907009 -317.526133 
L 851.925392 -316.87238 
L 851.945247 -316.218626 
L 851.966573 -315.564873 
L 851.989369 -314.911119 
L 852.013636 -314.257366 
L 852.039374 -313.603613 
L 852.066582 -312.949859 
L 852.095262 -312.296106 
L 852.125412 -311.642353 
L 852.157033 -310.988599 
L 852.190125 -310.334846 
L 852.224688 -309.681092 
L 852.260722 -309.027339 
L 852.298226 -308.373586 
L 852.337201 -307.719832 
L 852.377647 -307.066079 
L 852.419564 -306.412326 
L 852.462952 -305.758572 
L 852.50781 -305.104819 
L 852.554139 -304.451065 
L 852.60194 -303.797312 
L 852.65121 -303.143559 
L 852.701952 -302.489805 
L 852.754165 -301.836052 
L 852.807848 -301.182299 
L 852.863002 -300.528545 
L 852.919627 -299.874792 
L 852.977723 -299.221038 
L 853.03729 -298.567285 
L 853.098327 -297.913532 
L 853.160835 -297.259778 
L 853.224815 -296.606025 
L 853.290264 -295.952272 
L 853.357185 -295.298518 
L 853.425577 -294.644765 
L 853.495439 -293.991011 
L 853.566772 -293.337258 
L 853.639576 -292.683505 
L 853.713851 -292.029751 
L 853.789597 -291.375998 
L 853.866813 -290.722245 
L 853.9455 -290.068491 
L 854.025658 -289.414738 
L 854.107287 -288.760984 
L 854.190387 -288.107231 
L 854.274957 -287.453478 
L 854.360999 -286.799724 
L 854.448511 -286.145971 
L 854.537494 -285.492218 
L 854.627947 -284.838464 
L 854.719872 -284.184711 
L 854.813267 -283.530957 
L 854.908134 -282.877204 
L 855.004471 -282.223451 
L 855.102279 -281.569697 
L 855.201557 -280.915944 
L 855.302307 -280.262191 
L 855.404527 -279.608437 
L 855.508218 -278.954684 
L 855.61338 -278.30093 
L 855.720013 -277.647177 
L 855.828116 -276.993424 
L 855.937691 -276.33967 
L 856.048736 -275.685917 
L 856.161252 -275.032164 
L 856.275239 -274.37841 
L 856.390696 -273.724657 
L 856.507625 -273.070903 
L 856.626024 -272.41715 
L 856.745894 -271.763397 
L 856.867235 -271.109643 
L 856.990047 -270.45589 
L 857.114329 -269.802137 
L 857.240083 -269.148383 
L 857.367307 -268.49463 
L 857.496002 -267.840876 
L 857.626167 -267.187123 
L 857.757804 -266.53337 
L 857.890912 -265.879616 
L 858.02549 -265.225863 
L 858.161539 -264.57211 
L 858.299059 -263.918356 
L 858.438049 -263.264603 
L 858.578511 -262.610849 
L 858.720443 -261.957096 
L 858.863846 -261.303343 
L 859.00872 -260.649589 
L 859.155065 -259.995836 
L 859.302881 -259.342083 
L 859.452167 -258.688329 
L 859.602924 -258.034576 
L 859.755152 -257.380822 
L 859.908851 -256.727069 
L 860.064021 -256.073316 
L 860.220661 -255.419562 
L 860.378773 -254.765809 
L 860.538355 -254.112056 
L 860.699408 -253.458302 
L 860.861931 -252.804549 
L 861.025926 -252.150795 
L 861.191391 -251.497042 
L 861.358327 -250.843289 
L 861.526734 -250.189535 
L 861.696612 -249.535782 
L 861.867961 -248.882029 
L 862.04078 -248.228275 
L 862.215071 -247.574522 
L 862.390832 -246.920768 
z
" style="stroke: #008000; stroke-opacity: 0.5"/>
    </defs>
    <g clip-path="url(#p72046dbe0b)">
     <use xlink:href="#m5660107ac6" x="0" y="423.034375" style="fill: #008000; fill-opacity: 0.5; stroke: #008000; stroke-opacity: 0.5"/>
    </g>
   </g>
   <g id="PolyCollection_5">
    <defs>
     <path id="m9e0e5f3d04" d="M 1202.079915 -54.063523 
L 862.390832 -54.063523 
L 862.390832 -54.717276 
L 862.390832 -55.371029 
L 862.390832 -56.024783 
L 862.390832 -56.678536 
L 862.390832 -57.33229 
L 862.390832 -57.986043 
L 862.390832 -58.639796 
L 862.390832 -59.29355 
L 862.390832 -59.947303 
L 1202.079915 -59.947303 
L 1202.079915 -59.947303 
L 1202.079915 -59.29355 
L 1202.079915 -58.639796 
L 1202.079915 -57.986043 
L 1202.079915 -57.33229 
L 1202.079915 -56.678536 
L 1202.079915 -56.024783 
L 1202.079915 -55.371029 
L 1202.079915 -54.717276 
L 1202.079915 -54.063523 
z
" style="stroke: #ff0000; stroke-opacity: 0.5"/>
    </defs>
    <g clip-path="url(#p72046dbe0b)">
     <use xlink:href="#m9e0e5f3d04" x="0" y="423.034375" style="fill: #ff0000; fill-opacity: 0.5; stroke: #ff0000; stroke-opacity: 0.5"/>
    </g>
   </g>
   <g id="matplotlib.axis_5">
    <g id="xtick_5">
     <g id="line2d_25">
      <path d="M 862.390832 385.478125 
L 862.390832 22.318125 
" clip-path="url(#p72046dbe0b)" style="fill: none; stroke: #b0b0b0; stroke-width: 0.8; stroke-linecap: square"/>
     </g>
     <g id="line2d_26">
      <g>
       <use xlink:href="#m89c12502d5" x="862.390832" y="385.478125" style="stroke: #000000; stroke-width: 0.8"/>
      </g>
     </g>
     <g id="text_17">
      <!-- 0 -->
      <g transform="translate(859.209582 400.076562) scale(0.1 -0.1)">
       <use xlink:href="#DejaVuSans-30"/>
      </g>
     </g>
    </g>
    <g id="xtick_6">
     <g id="line2d_27">
      <path d="M 909.456187 385.478125 
L 909.456187 22.318125 
" clip-path="url(#p72046dbe0b)" style="fill: none; stroke: #b0b0b0; stroke-width: 0.8; stroke-linecap: square"/>
     </g>
     <g id="line2d_28">
      <g>
       <use xlink:href="#m89c12502d5" x="909.456187" y="385.478125" style="stroke: #000000; stroke-width: 0.8"/>
      </g>
     </g>
     <g id="text_18">
      <!-- 50 -->
      <g transform="translate(903.093687 400.076562) scale(0.1 -0.1)">
       <defs>
        <path id="DejaVuSans-35" d="M 691 4666 
L 3169 4666 
L 3169 4134 
L 1269 4134 
L 1269 2991 
Q 1406 3038 1543 3061 
Q 1681 3084 1819 3084 
Q 2600 3084 3056 2656 
Q 3513 2228 3513 1497 
Q 3513 744 3044 326 
Q 2575 -91 1722 -91 
Q 1428 -91 1123 -41 
Q 819 9 494 109 
L 494 744 
Q 775 591 1075 516 
Q 1375 441 1709 441 
Q 2250 441 2565 725 
Q 2881 1009 2881 1497 
Q 2881 1984 2565 2268 
Q 2250 2553 1709 2553 
Q 1456 2553 1204 2497 
Q 953 2441 691 2322 
L 691 4666 
z
" transform="scale(0.015625)"/>
       </defs>
       <use xlink:href="#DejaVuSans-35"/>
       <use xlink:href="#DejaVuSans-30" x="63.623047"/>
      </g>
     </g>
    </g>
    <g id="xtick_7">
     <g id="line2d_29">
      <path d="M 956.521541 385.478125 
L 956.521541 22.318125 
" clip-path="url(#p72046dbe0b)" style="fill: none; stroke: #b0b0b0; stroke-width: 0.8; stroke-linecap: square"/>
     </g>
     <g id="line2d_30">
      <g>
       <use xlink:href="#m89c12502d5" x="956.521541" y="385.478125" style="stroke: #000000; stroke-width: 0.8"/>
      </g>
     </g>
     <g id="text_19">
      <!-- 100 -->
      <g transform="translate(946.977791 400.076562) scale(0.1 -0.1)">
       <use xlink:href="#DejaVuSans-31"/>
       <use xlink:href="#DejaVuSans-30" x="63.623047"/>
       <use xlink:href="#DejaVuSans-30" x="127.246094"/>
      </g>
     </g>
    </g>
    <g id="xtick_8">
     <g id="line2d_31">
      <path d="M 1003.586896 385.478125 
L 1003.586896 22.318125 
" clip-path="url(#p72046dbe0b)" style="fill: none; stroke: #b0b0b0; stroke-width: 0.8; stroke-linecap: square"/>
     </g>
     <g id="line2d_32">
      <g>
       <use xlink:href="#m89c12502d5" x="1003.586896" y="385.478125" style="stroke: #000000; stroke-width: 0.8"/>
      </g>
     </g>
     <g id="text_20">
      <!-- 150 -->
      <g transform="translate(994.043146 400.076562) scale(0.1 -0.1)">
       <use xlink:href="#DejaVuSans-31"/>
       <use xlink:href="#DejaVuSans-35" x="63.623047"/>
       <use xlink:href="#DejaVuSans-30" x="127.246094"/>
      </g>
     </g>
    </g>
    <g id="xtick_9">
     <g id="line2d_33">
      <path d="M 1050.652251 385.478125 
L 1050.652251 22.318125 
" clip-path="url(#p72046dbe0b)" style="fill: none; stroke: #b0b0b0; stroke-width: 0.8; stroke-linecap: square"/>
     </g>
     <g id="line2d_34">
      <g>
       <use xlink:href="#m89c12502d5" x="1050.652251" y="385.478125" style="stroke: #000000; stroke-width: 0.8"/>
      </g>
     </g>
     <g id="text_21">
      <!-- 200 -->
      <g transform="translate(1041.108501 400.076562) scale(0.1 -0.1)">
       <use xlink:href="#DejaVuSans-32"/>
       <use xlink:href="#DejaVuSans-30" x="63.623047"/>
       <use xlink:href="#DejaVuSans-30" x="127.246094"/>
      </g>
     </g>
    </g>
    <g id="xtick_10">
     <g id="line2d_35">
      <path d="M 1097.717606 385.478125 
L 1097.717606 22.318125 
" clip-path="url(#p72046dbe0b)" style="fill: none; stroke: #b0b0b0; stroke-width: 0.8; stroke-linecap: square"/>
     </g>
     <g id="line2d_36">
      <g>
       <use xlink:href="#m89c12502d5" x="1097.717606" y="385.478125" style="stroke: #000000; stroke-width: 0.8"/>
      </g>
     </g>
     <g id="text_22">
      <!-- 250 -->
      <g transform="translate(1088.173856 400.076562) scale(0.1 -0.1)">
       <use xlink:href="#DejaVuSans-32"/>
       <use xlink:href="#DejaVuSans-35" x="63.623047"/>
       <use xlink:href="#DejaVuSans-30" x="127.246094"/>
      </g>
     </g>
    </g>
    <g id="xtick_11">
     <g id="line2d_37">
      <path d="M 1144.782961 385.478125 
L 1144.782961 22.318125 
" clip-path="url(#p72046dbe0b)" style="fill: none; stroke: #b0b0b0; stroke-width: 0.8; stroke-linecap: square"/>
     </g>
     <g id="line2d_38">
      <g>
       <use xlink:href="#m89c12502d5" x="1144.782961" y="385.478125" style="stroke: #000000; stroke-width: 0.8"/>
      </g>
     </g>
     <g id="text_23">
      <!-- 300 -->
      <g transform="translate(1135.239211 400.076562) scale(0.1 -0.1)">
       <use xlink:href="#DejaVuSans-33"/>
       <use xlink:href="#DejaVuSans-30" x="63.623047"/>
       <use xlink:href="#DejaVuSans-30" x="127.246094"/>
      </g>
     </g>
    </g>
    <g id="xtick_12">
     <g id="line2d_39">
      <path d="M 1191.848316 385.478125 
L 1191.848316 22.318125 
" clip-path="url(#p72046dbe0b)" style="fill: none; stroke: #b0b0b0; stroke-width: 0.8; stroke-linecap: square"/>
     </g>
     <g id="line2d_40">
      <g>
       <use xlink:href="#m89c12502d5" x="1191.848316" y="385.478125" style="stroke: #000000; stroke-width: 0.8"/>
      </g>
     </g>
     <g id="text_24">
      <!-- 350 -->
      <g transform="translate(1182.304566 400.076562) scale(0.1 -0.1)">
       <use xlink:href="#DejaVuSans-33"/>
       <use xlink:href="#DejaVuSans-35" x="63.623047"/>
       <use xlink:href="#DejaVuSans-30" x="127.246094"/>
      </g>
     </g>
    </g>
    <g id="text_25">
     <!-- Stress (MPa) -->
     <g transform="translate(995.918646 413.754687) scale(0.1 -0.1)">
      <defs>
       <path id="DejaVuSans-4d" d="M 628 4666 
L 1569 4666 
L 2759 1491 
L 3956 4666 
L 4897 4666 
L 4897 0 
L 4281 0 
L 4281 4097 
L 3078 897 
L 2444 897 
L 1241 4097 
L 1241 0 
L 628 0 
L 628 4666 
z
" transform="scale(0.015625)"/>
       <path id="DejaVuSans-50" d="M 1259 4147 
L 1259 2394 
L 2053 2394 
Q 2494 2394 2734 2622 
Q 2975 2850 2975 3272 
Q 2975 3691 2734 3919 
Q 2494 4147 2053 4147 
L 1259 4147 
z
M 628 4666 
L 2053 4666 
Q 2838 4666 3239 4311 
Q 3641 3956 3641 3272 
Q 3641 2581 3239 2228 
Q 2838 1875 2053 1875 
L 1259 1875 
L 1259 0 
L 628 0 
L 628 4666 
z
" transform="scale(0.015625)"/>
      </defs>
      <use xlink:href="#DejaVuSans-53"/>
      <use xlink:href="#DejaVuSans-74" x="63.476562"/>
      <use xlink:href="#DejaVuSans-72" x="102.685547"/>
      <use xlink:href="#DejaVuSans-65" x="141.548828"/>
      <use xlink:href="#DejaVuSans-73" x="203.072266"/>
      <use xlink:href="#DejaVuSans-73" x="255.171875"/>
      <use xlink:href="#DejaVuSans-20" x="307.271484"/>
      <use xlink:href="#DejaVuSans-28" x="339.058594"/>
      <use xlink:href="#DejaVuSans-4d" x="378.072266"/>
      <use xlink:href="#DejaVuSans-50" x="464.351562"/>
      <use xlink:href="#DejaVuSans-61" x="520.154297"/>
      <use xlink:href="#DejaVuSans-29" x="581.433594"/>
     </g>
    </g>
   </g>
   <g id="matplotlib.axis_6">
    <g id="ytick_7">
     <g id="line2d_41">
      <path d="M 834.287188 372.239619 
L 1219.593854 372.239619 
" clip-path="url(#p72046dbe0b)" style="fill: none; stroke: #b0b0b0; stroke-width: 0.8; stroke-linecap: square"/>
     </g>
     <g id="line2d_42">
      <g>
       <use xlink:href="#m0fb5eb6b06" x="834.287188" y="372.239619" style="stroke: #000000; stroke-width: 0.8"/>
      </g>
     </g>
     <g id="text_26">
      <!-- −300 -->
      <g transform="translate(799.82 376.038838) scale(0.1 -0.1)">
       <use xlink:href="#DejaVuSans-2212"/>
       <use xlink:href="#DejaVuSans-33" x="83.789062"/>
       <use xlink:href="#DejaVuSans-30" x="147.412109"/>
       <use xlink:href="#DejaVuSans-30" x="211.035156"/>
      </g>
     </g>
    </g>
    <g id="ytick_8">
     <g id="line2d_43">
      <path d="M 834.287188 306.864282 
L 1219.593854 306.864282 
" clip-path="url(#p72046dbe0b)" style="fill: none; stroke: #b0b0b0; stroke-width: 0.8; stroke-linecap: square"/>
     </g>
     <g id="line2d_44">
      <g>
       <use xlink:href="#m0fb5eb6b06" x="834.287188" y="306.864282" style="stroke: #000000; stroke-width: 0.8"/>
      </g>
     </g>
     <g id="text_27">
      <!-- −200 -->
      <g transform="translate(799.82 310.6635) scale(0.1 -0.1)">
       <use xlink:href="#DejaVuSans-2212"/>
       <use xlink:href="#DejaVuSans-32" x="83.789062"/>
       <use xlink:href="#DejaVuSans-30" x="147.412109"/>
       <use xlink:href="#DejaVuSans-30" x="211.035156"/>
      </g>
     </g>
    </g>
    <g id="ytick_9">
     <g id="line2d_45">
      <path d="M 834.287188 241.488944 
L 1219.593854 241.488944 
" clip-path="url(#p72046dbe0b)" style="fill: none; stroke: #b0b0b0; stroke-width: 0.8; stroke-linecap: square"/>
     </g>
     <g id="line2d_46">
      <g>
       <use xlink:href="#m0fb5eb6b06" x="834.287188" y="241.488944" style="stroke: #000000; stroke-width: 0.8"/>
      </g>
     </g>
     <g id="text_28">
      <!-- −100 -->
      <g transform="translate(799.82 245.288163) scale(0.1 -0.1)">
       <use xlink:href="#DejaVuSans-2212"/>
       <use xlink:href="#DejaVuSans-31" x="83.789062"/>
       <use xlink:href="#DejaVuSans-30" x="147.412109"/>
       <use xlink:href="#DejaVuSans-30" x="211.035156"/>
      </g>
     </g>
    </g>
    <g id="ytick_10">
     <g id="line2d_47">
      <path d="M 834.287188 176.113607 
L 1219.593854 176.113607 
" clip-path="url(#p72046dbe0b)" style="fill: none; stroke: #b0b0b0; stroke-width: 0.8; stroke-linecap: square"/>
     </g>
     <g id="line2d_48">
      <g>
       <use xlink:href="#m0fb5eb6b06" x="834.287188" y="176.113607" style="stroke: #000000; stroke-width: 0.8"/>
      </g>
     </g>
     <g id="text_29">
      <!-- 0 -->
      <g transform="translate(820.924688 179.912825) scale(0.1 -0.1)">
       <use xlink:href="#DejaVuSans-30"/>
      </g>
     </g>
    </g>
    <g id="ytick_11">
     <g id="line2d_49">
      <path d="M 834.287188 110.738269 
L 1219.593854 110.738269 
" clip-path="url(#p72046dbe0b)" style="fill: none; stroke: #b0b0b0; stroke-width: 0.8; stroke-linecap: square"/>
     </g>
     <g id="line2d_50">
      <g>
       <use xlink:href="#m0fb5eb6b06" x="834.287188" y="110.738269" style="stroke: #000000; stroke-width: 0.8"/>
      </g>
     </g>
     <g id="text_30">
      <!-- 100 -->
      <g transform="translate(808.199688 114.537488) scale(0.1 -0.1)">
       <use xlink:href="#DejaVuSans-31"/>
       <use xlink:href="#DejaVuSans-30" x="63.623047"/>
       <use xlink:href="#DejaVuSans-30" x="127.246094"/>
      </g>
     </g>
    </g>
    <g id="ytick_12">
     <g id="line2d_51">
      <path d="M 834.287188 45.362931 
L 1219.593854 45.362931 
" clip-path="url(#p72046dbe0b)" style="fill: none; stroke: #b0b0b0; stroke-width: 0.8; stroke-linecap: square"/>
     </g>
     <g id="line2d_52">
      <g>
       <use xlink:href="#m0fb5eb6b06" x="834.287188" y="45.362931" style="stroke: #000000; stroke-width: 0.8"/>
      </g>
     </g>
     <g id="text_31">
      <!-- 200 -->
      <g transform="translate(808.199688 49.16215) scale(0.1 -0.1)">
       <use xlink:href="#DejaVuSans-32"/>
       <use xlink:href="#DejaVuSans-30" x="63.623047"/>
       <use xlink:href="#DejaVuSans-30" x="127.246094"/>
      </g>
     </g>
    </g>
    <g id="text_32">
     <!-- Depth (mm) -->
     <g transform="translate(793.740313 234.359062) rotate(-90) scale(0.1 -0.1)">
      <use xlink:href="#DejaVuSans-44"/>
      <use xlink:href="#DejaVuSans-65" x="77.001953"/>
      <use xlink:href="#DejaVuSans-70" x="138.525391"/>
      <use xlink:href="#DejaVuSans-74" x="202.001953"/>
      <use xlink:href="#DejaVuSans-68" x="241.210938"/>
      <use xlink:href="#DejaVuSans-20" x="304.589844"/>
      <use xlink:href="#DejaVuSans-28" x="336.376953"/>
      <use xlink:href="#DejaVuSans-6d" x="375.390625"/>
      <use xlink:href="#DejaVuSans-6d" x="472.802734"/>
      <use xlink:href="#DejaVuSans-29" x="570.214844"/>
     </g>
    </g>
   </g>
   <g id="line2d_53">
    <path d="M 862.390832 176.113607 
L 860.220661 167.614813 
L 858.438049 159.769772 
L 856.867235 151.924732 
L 855.508218 144.079691 
L 854.360999 136.234651 
L 853.425577 128.38961 
L 852.701952 120.54457 
L 852.190125 112.699529 
L 851.890096 104.854489 
L 851.801127 97.009448 
L 851.801127 38.825398 
L 851.801127 38.825398 
" clip-path="url(#p72046dbe0b)" style="fill: none; stroke: #000000; stroke-width: 1.5; stroke-linecap: square"/>
   </g>
   <g id="line2d_54">
    <path d="M 1202.079915 368.970852 
L 1202.079915 368.317099 
L 1202.079915 367.663346 
L 1202.079915 367.009592 
L 1202.079915 366.355839 
L 1202.079915 365.702085 
L 1202.079915 365.048332 
L 1202.079915 364.394579 
L 1202.079915 363.740825 
L 1202.079915 363.087072 
" clip-path="url(#p72046dbe0b)" style="fill: none; stroke: #000000; stroke-width: 1.5; stroke-linecap: square"/>
   </g>
   <g id="line2d_55">
    <path d="M 834.287188 176.113607 
L 1219.593854 176.113607 
" clip-path="url(#p72046dbe0b)" style="fill: none; stroke-dasharray: 2.96,1.28; stroke-dashoffset: 0; stroke: #000000; stroke-width: 0.8"/>
   </g>
   <g id="line2d_56">
    <path d="M 862.390832 385.478125 
L 862.390832 22.318125 
" clip-path="url(#p72046dbe0b)" style="fill: none; stroke-dasharray: 2.96,1.28; stroke-dashoffset: 0; stroke: #000000; stroke-width: 0.8"/>
   </g>
   <g id="patch_9">
    <path d="M 834.287188 385.478125 
L 834.287188 22.318125 
" style="fill: none; stroke: #000000; stroke-width: 0.8; stroke-linejoin: miter; stroke-linecap: square"/>
   </g>
   <g id="patch_10">
    <path d="M 1219.593854 385.478125 
L 1219.593854 22.318125 
" style="fill: none; stroke: #000000; stroke-width: 0.8; stroke-linejoin: miter; stroke-linecap: square"/>
   </g>
   <g id="patch_11">
    <path d="M 834.287188 385.478125 
L 1219.593854 385.478125 
" style="fill: none; stroke: #000000; stroke-width: 0.8; stroke-linejoin: miter; stroke-linecap: square"/>
   </g>
   <g id="patch_12">
    <path d="M 834.287188 22.318125 
L 1219.593854 22.318125 
" style="fill: none; stroke: #000000; stroke-width: 0.8; stroke-linejoin: miter; stroke-linecap: square"/>
   </g>
   <g id="text_33">
    <!-- Stress Distribution Along the Depth of Reinforced Concrete Beam -->
    <g transform="translate(830.952396 16.318125) scale(0.12 -0.12)">
     <use xlink:href="#DejaVuSans-53"/>
     <use xlink:href="#DejaVuSans-74" x="63.476562"/>
     <use xlink:href="#DejaVuSans-72" x="102.685547"/>
     <use xlink:href="#DejaVuSans-65" x="141.548828"/>
     <use xlink:href="#DejaVuSans-73" x="203.072266"/>
     <use xlink:href="#DejaVuSans-73" x="255.171875"/>
     <use xlink:href="#DejaVuSans-20" x="307.271484"/>
     <use xlink:href="#DejaVuSans-44" x="339.058594"/>
     <use xlink:href="#DejaVuSans-69" x="416.060547"/>
     <use xlink:href="#DejaVuSans-73" x="443.84375"/>
     <use xlink:href="#DejaVuSans-74" x="495.943359"/>
     <use xlink:href="#DejaVuSans-72" x="535.152344"/>
     <use xlink:href="#DejaVuSans-69" x="576.265625"/>
     <use xlink:href="#DejaVuSans-62" x="604.048828"/>
     <use xlink:href="#DejaVuSans-75" x="667.525391"/>
     <use xlink:href="#DejaVuSans-74" x="730.904297"/>
     <use xlink:href="#DejaVuSans-69" x="770.113281"/>
     <use xlink:href="#DejaVuSans-6f" x="797.896484"/>
     <use xlink:href="#DejaVuSans-6e" x="859.078125"/>
     <use xlink:href="#DejaVuSans-20" x="922.457031"/>
     <use xlink:href="#DejaVuSans-41" x="954.244141"/>
     <use xlink:href="#DejaVuSans-6c" x="1022.652344"/>
     <use xlink:href="#DejaVuSans-6f" x="1050.435547"/>
     <use xlink:href="#DejaVuSans-6e" x="1111.617188"/>
     <use xlink:href="#DejaVuSans-67" x="1174.996094"/>
     <use xlink:href="#DejaVuSans-20" x="1238.472656"/>
     <use xlink:href="#DejaVuSans-74" x="1270.259766"/>
     <use xlink:href="#DejaVuSans-68" x="1309.46875"/>
     <use xlink:href="#DejaVuSans-65" x="1372.847656"/>
     <use xlink:href="#DejaVuSans-20" x="1434.371094"/>
     <use xlink:href="#DejaVuSans-44" x="1466.158203"/>
     <use xlink:href="#DejaVuSans-65" x="1543.160156"/>
     <use xlink:href="#DejaVuSans-70" x="1604.683594"/>
     <use xlink:href="#DejaVuSans-74" x="1668.160156"/>
     <use xlink:href="#DejaVuSans-68" x="1707.369141"/>
     <use xlink:href="#DejaVuSans-20" x="1770.748047"/>
     <use xlink:href="#DejaVuSans-6f" x="1802.535156"/>
     <use xlink:href="#DejaVuSans-66" x="1863.716797"/>
     <use xlink:href="#DejaVuSans-20" x="1898.921875"/>
     <use xlink:href="#DejaVuSans-52" x="1930.708984"/>
     <use xlink:href="#DejaVuSans-65" x="1995.691406"/>
     <use xlink:href="#DejaVuSans-69" x="2057.214844"/>
     <use xlink:href="#DejaVuSans-6e" x="2084.998047"/>
     <use xlink:href="#DejaVuSans-66" x="2148.376953"/>
     <use xlink:href="#DejaVuSans-6f" x="2183.582031"/>
     <use xlink:href="#DejaVuSans-72" x="2244.763672"/>
     <use xlink:href="#DejaVuSans-63" x="2283.626953"/>
     <use xlink:href="#DejaVuSans-65" x="2338.607422"/>
     <use xlink:href="#DejaVuSans-64" x="2400.130859"/>
     <use xlink:href="#DejaVuSans-20" x="2463.607422"/>
     <use xlink:href="#DejaVuSans-43" x="2495.394531"/>
     <use xlink:href="#DejaVuSans-6f" x="2565.21875"/>
     <use xlink:href="#DejaVuSans-6e" x="2626.400391"/>
     <use xlink:href="#DejaVuSans-63" x="2689.779297"/>
     <use xlink:href="#DejaVuSans-72" x="2744.759766"/>
     <use xlink:href="#DejaVuSans-65" x="2783.623047"/>
     <use xlink:href="#DejaVuSans-74" x="2845.146484"/>
     <use xlink:href="#DejaVuSans-65" x="2884.355469"/>
     <use xlink:href="#DejaVuSans-20" x="2945.878906"/>
     <use xlink:href="#DejaVuSans-42" x="2977.666016"/>
     <use xlink:href="#DejaVuSans-65" x="3046.269531"/>
     <use xlink:href="#DejaVuSans-61" x="3107.792969"/>
     <use xlink:href="#DejaVuSans-6d" x="3169.072266"/>
    </g>
   </g>
  </g>
 </g>
 <defs>
  <clipPath id="pacf4d1317b">
   <rect x="28.899187" y="22.318125" width="217.896" height="363.16"/>
  </clipPath>
  <clipPath id="p80dc5d70aa">
   <rect x="389.740521" y="22.318125" width="385.306667" height="363.16"/>
  </clipPath>
  <clipPath id="p72046dbe0b">
   <rect x="834.287188" y="22.318125" width="385.306667" height="363.16"/>
  </clipPath>
 </defs>
</svg>
